<svg width="308" height="540" viewBox="0 0 308 540" fill="none" xmlns="http://www.w3.org/2000/svg" class="index_HeroLeft__PGQMZ"><g clip-path="url(#hero-left_svg__a)"><g opacity="0.75"><path d="m191.089 436.777-4.874-8.443-42.904 60.555 5.221 9.042 42.557-61.154Z" fill="#313131"></path><path d="m148.324 482.292 33.208-46.872 1.394-1.978c1.393-2.014 3.407-5.025 3.29-5.108-.117-.083-2.289 2.815-3.727 4.798l-1.406 1.97-33.209 46.873-1.143 1.622c-1.394 2.007-3.54 5.205-3.419 5.291.122.087 2.427-2.998 3.86-4.981l1.152-1.615Z" fill="#626262"></path><path d="m191.089 436.774-4.874-8.442 78.846-16.266 5.157 8.932-79.129 15.776Z" fill="#212121"></path><path d="m256.703 413.51-61.985 12.786-2.61.547c-2.393.52-5.92 1.347-5.891 1.489.029.139 3.595-.496 5.999-.966l2.614-.53 61.984-12.787 2.139-.446c2.39-.519 6.14-1.394 6.11-1.538-.029-.144-3.82.538-6.22 1.008l-2.14.437Z" fill="#626262"></path><path d="m181.743 422.808-54.1 75.309 103.082-16.699 49.005-79.292-97.987 20.682Zm43.673 52.362-82.107 13.718 42.903-60.555 78.846-16.266-39.642 63.103Z" fill="#626262"></path><path d="m137.215 362.621 39.115 67.748 9.886-2.039-39.401-68.244-9.6 2.535Z" fill="#212121"></path><path d="m152.49 353.14 39.063 67.659-5.336 7.533-39.41-68.26 5.683-6.932Z" fill="#313131"></path><path d="m146.566 360.209 34.985 60.595 1.335 2.299c1.247 2.109 3.202 5.302 3.329 5.228.127-.073-1.66-3.363-2.863-5.497l-1.323-2.307-34.984-60.594-.479.276Z" fill="#626262"></path><path d="m146.796 360.126-4.979-8.624-46.049 55.107 5.333 9.237 45.695-55.72Z" fill="#313131"></path><path d="m146.797 360.126-4.981-8.626 76.276-20.718 5.269 9.126-76.564 20.218ZM209.06 444.02l18.459-3.192 8.815-14.563-18.181 3.39-9.093 14.365ZM184.412 448.283l18.492-3.198 9.181-14.297-18.235 3.399-9.438 14.096ZM239.274 421.41l8.816-14.565-17.797 3.633-9.106 14.386 18.087-3.454ZM200.493 416.561l-17.962 3.668-9.8 13.887 18.209-3.478 9.553-14.077ZM181.27 452.974l-9.423 14.072 18.817-2.907 9.18-14.291-18.574 3.126ZM196.936 463.172l18.818-2.906 8.826-14.582-18.55 3.121-9.094 14.367ZM156.48 457.146l-9.72 13.773 18.817-2.905 9.5-13.998-18.597 3.13ZM215.15 426.014l9.199-14.324-17.879 3.65-9.468 14.139 18.148-3.465ZM187.764 435.322l-18.288 3.41-9.751 13.817 18.521-3.201 9.518-14.026Z" fill="#212121"></path><path d="m180.5 446.685 6.835-10.088 1.552-2.204c.608-.842 1.128-1.526 1.175-1.494.047.032-.396.768-.952 1.644l-1.471 2.26-6.835 10.088-.304-.206ZM217.582 423.73l-13.692 2.643-2.721.475c-1.026.165-1.877.283-1.888.227-.01-.056.823-.263 1.837-.491l2.702-.572 13.692-2.644.07.362Z" fill="#DFE0DF"></path><path d="m196.049 421.407 18.056-3.61 9.171-14.036-17.791 3.786-9.436 13.86ZM171.744 426.265l18.232-3.646 9.52-13.8-17.986 3.828-9.766 13.618ZM168.498 430.795l-9.736 13.578 18.541-3.382 9.503-13.776-18.308 3.58ZM188.668 395.795l-17.727 4.07-10.114 13.433 17.965-3.898 9.876-13.605ZM202.669 404.217l9.538-13.826-17.645 4.052-9.795 13.66 17.902-3.886ZM175.505 413.926l-18.039 3.837-10.065 13.369 18.262-3.65 9.842-13.556Z" fill="#212121"></path><path d="m142.785 428.532 10.011-13.114 22.284 38.598-9.5 13.998-22.795-39.482ZM180.65 446.788l9.41-13.889 9.785 16.949-9.178 14.291-10.017-17.351Z" fill="#414141"></path><path d="m217.543 423.551-18.266 3.525 9.783 16.945 18.459-3.192-9.976-17.278ZM216.678 382.271l-17.643 4.224 22.152 38.369 18.087-3.454-22.596-39.139Z" fill="#626262"></path><path d="m162.034 450.051 18.61-3.262 9.412-13.89-18.376 3.467-9.646 13.685Z" fill="url(#hero-left_svg__b)"></path><path d="m226.586 409.384-17.96 3.701-9.351 13.991 18.23-3.519 9.081-14.173Z" fill="url(#hero-left_svg__c)"></path><path d="m142.641 428.42 7.249-9.485 1.669-2.105c.657-.805 1.214-1.458 1.259-1.424.045.035-.439.744-1.044 1.589l-1.592 2.163-7.249 9.485-.292-.223ZM216.732 382.462l-13.055 3.095-2.68.585c-1.018.208-1.863.361-1.875.305-.013-.055.81-.298 1.813-.568l2.657-.68 13.055-3.094.085.357Z" fill="#DFE0DF"></path><path d="m213.406 376.692 9.5-13.466-17.201 4.397-9.765 13.328 17.466-4.259ZM169.043 391.062l-10.064 13.095 17.972-4.093 9.833-13.257-17.741 4.255ZM131.543 413.903l-10.301 12.813 18.264-3.86 10.103-12.995-18.066 4.042ZM197.578 399.131l-17.886 4.002-9.739 13.291 18.127-3.831 9.498-13.462ZM190.063 382.383l9.85-13.28-17.416 4.452-10.095 13.135 17.661-4.307ZM163.122 392.481l-17.79 4.268-10.349 12.873 18-4.101 10.139-13.04ZM176.679 375.043l-17.494 4.472-10.398 12.935 17.718-4.321 10.174-13.086Z" fill="#626262"></path><path d="m167.535 359.507-10.295 12.569 9.269 16.054 10.072-12.955-9.046-15.668ZM190.541 353.166l-9.988 12.744 9.512 16.475 9.753-13.15-9.277-16.069Z" fill="#E0A412"></path><path d="m166.508 388.128-17.828 4.349-9.047-15.671 17.643-4.667 9.232 15.989ZM190.067 382.385l-17.771 4.333-9.292-16.095 17.586-4.651 9.477 16.413Z" fill="#D59C13"></path><path d="m157.416 372.015 6.906 11.961 1.335 2.412c.492.914.881 1.68.832 1.709-.05.028-.518-.692-1.065-1.575l-1.421-2.362-6.905-11.961.318-.184ZM180.729 365.847l7.141 12.37 1.345 2.427c.491.915.88 1.681.831 1.709-.049.029-.518-.691-1.064-1.574l-1.43-2.378-7.142-12.37.319-.184Z" fill="#FEF9EB"></path><path d="m152.983 405.524 10.075-12.958-9.343-16.184-10.298 12.574 9.566 16.568ZM177.13 370.276l-10.005 12.767 9.827 17.021 9.771-13.174-9.593-16.614Z" fill="#E0A412"></path><path d="m152.986 405.522-18.055 4.114-9.353-16.2 17.858-4.454 9.55 16.54ZM176.954 400.062l-18.029 4.107-9.613-16.649 17.834-4.447 9.808 16.989Z" fill="#D59C13"></path><path d="m153.713 400.133 10.067-12.799 23.026 39.881-9.504 13.776-23.589-40.858Z" fill="#E0A412"></path><path d="m190.771 377.18-17.716 4.403 22.992 39.824 18.162-3.631-23.438-40.596Z" fill="#D59C13"></path><path d="m124.45 432.269 18.337-3.74 10.03-13.125-18.137 3.929-10.23 12.936Z" fill="url(#hero-left_svg__d)"></path><path d="m173.346 422.298 18.31-3.735 9.416-13.61-18.064 3.912-9.662 13.433Z" fill="url(#hero-left_svg__e)"></path><path d="m226.06 368.681-17.251 4.297-9.688 13.469 17.52-4.154 9.419-13.612Z" fill="url(#hero-left_svg__f)"></path><path d="m143.573 388.86 7.211 12.49 1.347 2.433c.492.914.881 1.68.832 1.709-.05.028-.518-.692-1.065-1.575l-1.433-2.383-7.211-12.49.319-.184ZM167.28 382.951l7.461 12.923 1.356 2.448c.492.915.881 1.681.832 1.709-.05.029-.518-.691-1.065-1.574l-1.442-2.399-7.461-12.924.319-.183Z" fill="#FEF9EB"></path><path d="m139.507 422.857 10.075-12.959-9.641-16.699-10.298 12.573 9.864 17.085Z" fill="#E0A412"></path><path d="m213.411 376.693-17.573 4.285-9.537-16.519 17.39-4.601 9.72 16.835Z" fill="#D59C13"></path><path d="m135.66 404.363 23.099 40.009 18.543-3.382-23.59-40.859-18.052 4.232Z" fill="url(#hero-left_svg__g)"></path><path d="m171.847 467.044 18.817-2.907-10.017-17.35-18.612 3.263 9.812 16.994Z" fill="url(#hero-left_svg__h)"></path><path d="m146.759 470.918 18.816-2.906-22.795-39.482-18.335 3.74 22.314 38.648Z" fill="url(#hero-left_svg__i)"></path><path d="m129.639 405.771-18.057 4.221 9.656 16.725 18.265-3.862-9.864-17.084Z" fill="url(#hero-left_svg__j)"></path><path d="m173.34 422.298 23.597 40.871 18.816-2.905-24.083-41.713-18.33 3.747Z" fill="url(#hero-left_svg__k)"></path><path d="m177.795 394.516-18.057 4.221 10.212 17.687 18.265-3.86-10.42-18.048Z" fill="url(#hero-left_svg__l)"></path><path d="m180.663 446.969-14.013 2.456-2.74.431c-1.028.148-1.88.251-1.89.194-.011-.056.826-.25 1.844-.459l2.723-.528 14.013-2.456.063.362ZM142.801 428.713l-13.767 2.808-2.72.505c-1.023.176-1.873.302-1.884.246-.011-.056.82-.272 1.831-.51l2.7-.601 13.768-2.808.072.36ZM191.696 418.74l-13.767 2.808-2.72.505c-1.024.176-1.873.302-1.884.246-.012-.055.819-.271 1.83-.51l2.7-.601 13.768-2.808.073.36Z" fill="#DFE0DF"></path><path d="m153.551 400.226 20.737 35.919.792 1.362c.832 1.406 2.135 3.534 2.22 3.486.084-.049-1.107-2.242-1.909-3.665l-.784-1.367-20.737-35.919-.319.184Z" fill="#FEF9EB"></path><path d="m180.48 446.87 7.662 13.27 1.451 2.413c.546.884 1.015 1.604 1.064 1.575.05-.029-.34-.794-.831-1.709l-1.365-2.463-7.662-13.271-.319.185Z" fill="#DFE0DF"></path><path d="m129.473 405.853 7.514 13.016 1.445 2.403c.546.883 1.015 1.603 1.064 1.574.05-.028-.34-.794-.831-1.709l-1.359-2.452-7.515-13.016-.318.184Z" fill="#FEF9EB"></path><path d="m142.613 428.613 19.972 34.592.763 1.313c.832 1.405 2.135 3.534 2.22 3.485.084-.049-1.108-2.242-1.909-3.665l-.755-1.317-19.972-34.592-.319.184Z" fill="#DFE0DF"></path><path d="m213.452 376.681 9.457-13.455-9.456-16.377-9.719 12.999 9.718 16.833Z" fill="url(#hero-left_svg__m)"></path><path d="m187.539 381.513-9.738 13.003 10.42 18.048 9.475-13.458-10.157-17.593Z" fill="url(#hero-left_svg__n)"></path><path d="m214.219 417.775 9.125-14.028-22.844-39.566-9.719 12.999 23.438 40.595Z" fill="url(#hero-left_svg__o)"></path><path d="m239.28 421.409 8.815-14.565-22.032-38.162-9.379 13.589 22.596 39.138Z" fill="url(#hero-left_svg__p)"></path><path d="m191.695 418.542 24.08 41.706 8.815-14.565-23.515-40.73-9.38 13.589Z" fill="url(#hero-left_svg__q)"></path><path d="m217.548 423.547 9.976 17.281 8.816-14.564-9.746-16.881-9.046 14.164Z" fill="url(#hero-left_svg__r)"></path><path d="m191.769 418.675 6.808-9.842 1.489-2.236c.564-.873 1.014-1.604.967-1.636-.047-.032-.572.646-1.189 1.482l-1.569 2.182-6.809 9.84.303.21ZM216.804 382.394l6.772-9.829 1.484-2.239c.563-.873 1.011-1.605.964-1.637-.047-.032-.571.647-1.186 1.484l-1.565 2.184-6.771 9.83.302.207ZM217.666 423.654l6.574-10.295 1.41-2.299c.532-.891.955-1.639.907-1.67-.049-.031-.548.667-1.134 1.526l-1.493 2.246-6.575 10.294.311.198Z" fill="#DFE0DF"></path><path d="m190.936 377.089 20.574 35.637.778 1.356c.802 1.423 1.994 3.616 1.909 3.665-.085.049-1.388-2.08-2.219-3.485l-.786-1.353-20.575-35.636.319-.184ZM203.893 359.757l7.374 12.772 1.353 2.444c.492.914.881 1.68.832 1.708-.05.029-.518-.691-1.064-1.574l-1.44-2.394-7.374-12.772.319-.184ZM177.955 394.425l8.051 13.943.301.532c.802 1.423 1.994 3.616 1.909 3.665-.085.049-1.388-2.08-2.219-3.485l-.31-.528-8.05-13.943.318-.184Z" fill="#FEF9EB"></path><path d="m191.811 418.472 21.227 36.725.803 1.398c.802 1.422 1.995 3.615 1.911 3.664-.085.048-1.39-2.08-2.221-3.485l-.811-1.393-21.228-36.725.319-.184ZM216.846 382.191l19.773 34.249.748 1.304c.802 1.423 1.993 3.616 1.909 3.665-.085.049-1.388-2.08-2.22-3.485l-.755-1.3-19.774-34.249.319-.184ZM217.705 423.457l7.623 13.203 1.363 2.46c.492.915.881 1.681.832 1.709-.05.029-.518-.691-1.065-1.574l-1.448-2.411-7.623-13.203.318-.184Z" fill="#DFE0DF"></path><path d="m203.736 359.846 9.718-12.999-17.179 4.736-9.975 12.874 17.436-4.611Z" fill="url(#hero-left_svg__s)"></path><path d="m149.31 387.519 17.78-4.434 10.041-12.812-17.558 4.578-10.263 12.668Z" fill="url(#hero-left_svg__t)"></path><path d="m135.66 404.365 18.062-4.222 10.023-12.789-17.852 4.38-10.233 12.631Z" fill="url(#hero-left_svg__u)"></path><path d="m111.68 410.146 18.062-4.222 10.022-12.789-17.851 4.381-10.233 12.63Z" fill="url(#hero-left_svg__v)"></path><path d="m153.716 376.38-17.604 4.59-10.536 12.466 17.806-4.44 10.334-12.616Z" fill="url(#hero-left_svg__w)"></path><path d="m182.974 368.75-9.963 12.859 17.764-4.43 9.72-12.999-17.521 4.57Z" fill="url(#hero-left_svg__x)"></path><path d="m169.892 385.873-9.963 12.859 17.764-4.43 9.72-12.999-17.521 4.57Z" fill="url(#hero-left_svg__y)"></path><path d="m180.483 365.997 10.058-12.833-17.245 4.753-10.294 12.704 17.481-4.624Z" fill="url(#hero-left_svg__z)"></path><path d="m167.535 359.505-17.319 4.775-10.583 12.525 17.535-4.639 10.367-12.661Z" fill="url(#hero-left_svg__A)"></path><path d="m210.276 350.773-6.647 8.891-12.498 3.327-.983.265c-1.574.436-3.892 1.115-3.867 1.208.024.091 2.375-.463 3.958-.863l.986-.255 4.515-1.193 3.862-1.023 2.111-.558 1.073-.283.538-.142.267-.071.158-.043c.096.014.153-.143.175-.149l6.646-8.89.496-.672c.964-1.314 2.448-3.409 2.369-3.468-.079-.059-1.668 1.957-2.657 3.253l-.502.666ZM173.859 374.136l-6.868 8.765-12.816 3.218-.999.255c-1.58.412-3.906 1.06-3.883 1.152.023.093 2.381-.429 3.97-.805l1.001-.245 4.634-1.156 3.96-.988 2.162-.538 1.098-.273.548-.138.275-.069.159-.039c.098.012.157-.141.18-.149l6.869-8.764.518-.667c.993-1.293 2.524-3.353 2.447-3.414-.078-.061-1.713 1.918-2.731 3.191l-.524.664ZM160.471 391.22l-6.846 8.735-13.07 3.079-1.01.242c-1.585.39-3.922 1.001-3.9 1.095.022.093 2.387-.393 3.981-.748l1.013-.231 4.733-1.105 4.04-.946 2.202-.515 1.118-.26.559-.132.279-.064.163-.038c.099.015.159-.144.182-.151l6.846-8.734.522-.673c.992-1.293 2.524-3.353 2.447-3.414-.078-.061-1.713 1.918-2.731 3.191l-.528.669ZM150.359 380.17l-7.074 8.637-12.842 3.228-1.003.254c-1.579.413-3.905 1.06-3.882 1.152.023.093 2.38-.429 3.969-.805l1.004-.245 4.642-1.158 3.968-.989 2.165-.54 1.1-.274.55-.138.275-.068.158-.039c.099.01.158-.138.181-.145l7.073-8.637.535-.657c1.02-1.271 2.595-3.299 2.519-3.361-.076-.063-1.753 1.881-2.799 3.132l-.539.653ZM136.583 396.993l-7.034 8.591-13.069 3.078-1.011.242c-1.585.39-3.921 1.001-3.899 1.094.021.094 2.387-.393 3.98-.747l1.013-.231 4.73-1.106 4.039-.944 2.201-.514 1.118-.261.558-.131.28-.064.16-.039c.1.013.159-.139.183-.146l7.035-8.589.537-.66c1.02-1.271 2.595-3.299 2.52-3.361-.076-.062-1.754 1.881-2.799 3.132l-.542.656ZM197.311 368.113l-6.642 8.882-12.797 3.215-.998.253c-1.579.413-3.905 1.06-3.882 1.153.023.092 2.381-.43 3.969-.806l1-.244 4.629-1.155 3.957-.987 2.16-.537 1.096-.274.548-.136.273-.069.162-.04c.098.014.155-.147.177-.153l6.642-8.882.502-.678c.963-1.315 2.448-3.41 2.369-3.468-.079-.059-1.669 1.957-2.657 3.252l-.508.674ZM184.348 385.452l-6.633 8.874-13.081 3.081-1.011.241c-1.585.39-3.921 1.002-3.9 1.095.022.093 2.388-.393 3.981-.748l1.013-.231 4.739-1.107 4.046-.946 2.204-.515 1.118-.262.56-.131.28-.064.164-.04c.101.018.157-.147.181-.153l6.634-8.874.507-.685c.963-1.314 2.447-3.409 2.369-3.468-.079-.058-1.669 1.958-2.657 3.253l-.514.68ZM187.275 357.018l-6.891 8.793-12.543 3.341-.988.267c-1.574.435-3.892 1.114-3.867 1.207.025.092 2.375-.462 3.958-.862l.991-.257 4.528-1.197 3.875-1.025 2.118-.56 1.077-.285.539-.143.27-.071.155-.041c.096.01.154-.139.177-.147l6.89-8.793.515-.662c.992-1.293 2.524-3.353 2.446-3.414-.077-.061-1.712 1.918-2.73 3.191l-.52.658ZM164.184 363.292l-7.112 8.685-12.597 3.357-.992.268c-1.574.435-3.892 1.115-3.866 1.208.024.092 2.374-.462 3.957-.863l.995-.257 4.546-1.204 3.89-1.028 2.126-.563 1.081-.286.542-.143.271-.071.153-.042c.097.008.156-.135.178-.143l7.113-8.685.531-.654c1.02-1.27 2.594-3.299 2.519-3.361-.076-.062-1.754 1.882-2.798 3.133l-.537.649Z" fill="#FEF9EB"></path><path opacity="0.8" d="m180.581 397.579-5.665-9.812 43.175-56.983 5.268 9.123-42.778 57.672Z" fill="#212121"></path><path opacity="0.8" d="m138.063 347.206-57.953 68.58 99.347-23.222 53.467-71.508-94.861 26.15Zm36.855 40.561L95.77 406.611l46.052-55.112 76.272-20.715-43.176 56.983Z" fill="url(#hero-left_svg__B)"></path><path d="m223.367 339.907 41.665 72.165 9.802-2.024-41.948-72.655-9.519 2.514Z" fill="#212121"></path><path opacity="0.8" d="m180.582 397.579 42.779-57.669 9.519-2.514-42.37 57.902-9.928 2.281Z" fill="#101010"></path><path opacity="0.8" d="m235.639 473.463-45.128-78.165-9.929 2.282 44.8 77.597 10.257-1.714Z" fill="#313131"></path><path d="m179.459 392.563 56.933 98.609 48.492-80.117-51.96-89.996-53.465 71.504Zm95.368 17.489-39.189 63.411-45.129-78.166 42.37-57.902 41.948 72.657Z" fill="url(#hero-left_svg__C)"></path><path d="m101.108 415.845 42.185 73.067-5.336 7.533-42.533-73.67 5.684-6.93Z" fill="#313131"></path><path opacity="0.8" d="m175.242 404.782 5.343-7.204-79.479 18.269-5.682 6.928 79.818-17.993Z" fill="#101010"></path><path opacity="0.8" d="m220.447 483.082-45.207-78.301 5.344-7.203 44.814 77.62-4.951 7.884Z" fill="#313131"></path><path opacity="0.8" d="m180.586 397.578-5.664-9.81-79.149 18.842 5.333 9.237 79.48-18.269Z" fill="#313131"></path><path d="m80.11 415.786 52.756 91.375 103.528-15.987-56.934-98.612-99.35 23.224Zm140.335 67.297-82.493 13.365-42.535-73.672 79.822-17.992 45.206 78.299Z" fill="#212121"></path><path d="m241.645 464.267 33.127-53.603.204-.332c.04-.109.199-.216.141-.328l-36.108-62.54-2.864-4.946c-1.249-2.107-3.143-5.195-3.267-5.123-.124.071 1.602 3.256 2.803 5.391l2.85 4.954 35.974 62.307-.202.327-33.128 53.602-2.458 3.99c-1.266 2.092-3.206 5.419-3.08 5.497.126.078 2.234-3.145 3.54-5.213l2.468-3.983ZM179.223 392.699l51.865 89.833 1.977 3.412c1.248 2.108 3.203 5.301 3.33 5.228.127-.073-1.661-3.363-2.863-5.498l-1.966-3.418-51.865-89.833-.478.276ZM220.487 483.354 188 488.619l-31.674 5.131-17.088 2.769-1.087.175c-.423.247-.548-.391-.623-.426l-36.28-62.838-2.969-5.156c-1.202-2.134-2.99-5.424-2.863-5.497.127-.074 2.082 3.119 3.33 5.228l2.98 5.149 36.369 62.992 1.055-.171 17.088-2.768 31.673-5.132 32.489-5.264.087.543Z" fill="#626262"></path><path d="m225.497 330.529-45.857 61.328-.284.38c-.124.163.018.034-.229.121l-.928.216-1.855.434-3.712.868-7.414 1.733-14.585 3.409-26.679 6.236-31.178 7.288-6.816 1.601c-2.38.585-5.883 1.502-5.85 1.642.032.14 3.58-.589 5.97-1.121l6.821-1.586 31.178-7.288 26.679-6.236 14.585-3.409 7.414-1.732 3.713-.869 1.854-.433.928-.216.294-.068c.157-.051.211-.239.252-.26l.284-.38 45.856-61.327 3.432-4.602c1.446-1.972 3.672-5.115 3.554-5.203-.119-.088-2.502 2.936-3.986 4.88l-3.441 4.594Z" fill="#626262"></path><path d="m207.657 333.332-65.463 17.78-.322.087c-.161-.014-.375.235-.395.283l-.43.513-.857 1.026-1.711 2.047-3.392 4.058-6.595 7.895-11.86 14.191-13.708 16.408-3.469 4.162c-1.55 1.897-3.797 4.737-3.686 4.829.11.093 2.505-2.625 4.097-4.486l3.481-4.154 13.708-16.405 11.859-14.192 6.596-7.894 3.392-4.058 1.711-2.047.857-1.028.428-.513c.121-.127.033-.076.119-.102l.323-.088 65.462-17.779 4.285-1.17c2.354-.665 6.044-1.767 6.005-1.911-.039-.144-3.779.772-6.146 1.388l-4.289 1.16Z" fill="#626262"></path></g><g opacity="0.75"><path d="m161.177 132.943 4.874-8.442-73.894-6.879-5.22 9.042 74.24 6.279Z" fill="#313131"></path><path d="m100.38 118.665 57.196 5.324 2.41.217c2.442.2 6.056.439 6.069.296.014-.143-3.582-.575-6.019-.829l-2.409-.233-57.197-5.323-1.976-.179c-2.435-.203-6.278-.463-6.292-.315-.014.148 3.81.603 6.243.852l1.975.19Z" fill="#626262"></path><path d="m161.18 132.944 4.875-8.443 53.51 60.15-5.157 8.932-53.228-60.639Z" fill="#212121"></path><path d="m214.136 178.134-42.066-47.286-1.779-1.988c-1.647-1.812-4.126-4.453-4.234-4.357-.107.095 2.227 2.865 3.835 4.713l1.766 1.998 42.066 47.286 1.456 1.629c1.644 1.811 4.277 4.621 4.387 4.524.11-.098-2.376-3.04-3.983-4.884l-1.448-1.635Z" fill="#626262"></path><path d="m168.606 117.87-92.27-9.197 66.004 80.921 93.171 2.794-66.905-74.518Zm-23.51 64.003-52.934-64.249 73.894 6.879 53.51 60.149-74.47-2.779Z" fill="#626262"></path><path d="M198.465 49.212 159.35 116.96l6.709 7.542 39.401-68.244-6.995-7.047Z" fill="#212121"></path><path d="m214.311 57.699-39.063 67.659-9.192-.855 39.41-68.26 8.845 1.456Z" fill="#313131"></path><path d="m205.23 56.105-34.984 60.593-1.323 2.306c-1.203 2.135-2.99 5.425-2.863 5.498.126.073 2.082-3.12 3.329-5.228l1.336-2.299 34.984-60.594-.479-.276Z" fill="#626262"></path><path d="m205.42 56.266 4.979-8.624-70.749-12.326-5.333 9.237 71.103 11.713Z" fill="#313131"></path><path d="m205.418 56.266 4.98-8.626 56.08 55.698-5.268 9.125-55.792-56.197Z" fill="#212121"></path><path d="m175.131 119.553-54.051-4.933 38.277 47.641 54.613 1.129-38.839-43.837Zm-10.283 27.441-12.827-15.427 17.834 1.229 12.888 15.012-17.895-.814Z" fill="#626262"></path><path d="m203.398 70.594-28.267 48.961 38.833 43.83 30.31-52.498-40.876-40.293Zm7.44 61.174-13.169-14.218 9.642-16.701 13.396 13.825-9.869 17.094Z" fill="#A8A9A8"></path><path d="m151.852 61.318-30.773 53.301 54.053 4.934 28.267-48.96-51.547-9.275Zm15.165 39.44-17.735-2.137 9.957-17.246 17.408 2.703-9.63 16.68Z" fill="#313131"></path><path d="m149.285 98.622 9.957-17.246 13.426 14.633-10.212 17.69-13.171-15.077Z" fill="#DAA013"></path><path d="m159.243 81.375 17.308 2.597 13.579 14.39-17.361-2.244-13.526-14.743ZM175.467 128.598l-10.622 18.398 17.896.813 10.315-17.865-17.589-1.346Z" fill="#FDD46E"></path><path d="m152.016 131.568 10.363-17.95 13.085 14.98-10.622 18.397-12.826-15.427Z" fill="#FDB913"></path><path d="m220.706 114.674-9.612 16.649-17.931-1.371 9.912-17.169 17.631 1.891Z" fill="#FDD46E"></path><path d="m220.706 114.675-16.897-1.813-13.684-14.5 16.89 2.183 13.691 14.13Z" fill="#DAA013"></path><path d="m144.631 111.939 17.823 1.761 13.015 14.899-17.896-1.368-12.942-15.292Z" fill="url(#hero-left_svg__D)"></path><path d="m155.138 93.742-10.505 18.196 17.822 1.762 10.214-17.69-17.531-2.268Z" fill="url(#hero-left_svg__E)"></path><path d="m175.47 128.599 10.466-18.129-13.268-14.46-10.213 17.689 13.015 14.9Z" fill="#C08D11"></path><path d="m157.574 127.23 10.774-18.662 17.588 1.902-10.467 18.129-17.895-1.369Z" fill="#DAA013"></path><path d="m172.669 96.01-17.531-2.268 13.211 14.826 17.587 1.901-13.267-14.46Z" fill="#FDD46E"></path><path d="m175.47 128.598 17.698 1.354 13.163 14.619-17.727-.938-13.134-15.035Z" fill="url(#hero-left_svg__F)"></path><path d="m175.468 128.598 10.466-18.127 17.394 1.88-10.161 17.6-17.699-1.353Z" fill="#DAA013"></path><path d="m193.166 129.952 10.162-17.601 13.403 14.203-10.402 18.018-13.163-14.62Z" fill="url(#hero-left_svg__G)"></path><path d="m188.601 143.633 10.722-18.571-13.389-14.592-10.467 18.128 13.134 15.035Z" fill="#FDB913"></path><path d="m216.732 126.554-17.408-1.492-13.389-14.592 17.392 1.88 13.405 14.204Z" fill="#DAA013"></path><path d="m172.669 96.008 10.046-17.4 17.224 2.764-9.759 16.903-17.511-2.267Z" fill="url(#hero-left_svg__H)"></path><path d="m203.33 112.351 10.043-17.395-13.435-13.582-9.808 16.988 13.2 13.989Z" fill="url(#hero-left_svg__I)"></path><path d="m185.935 110.468 10.296-17.832-13.516-14.027-10.047 17.401 13.267 14.458Z" fill="#DAA013"></path><path d="m196.233 92.635-10.296 17.833 17.395 1.881 9.998-17.316-17.097-2.398Z" fill="#FDB913"></path><path opacity="0.9" d="m192.56 104.732-33.21 57.522 54.615 1.13 30.31-52.498-51.715-6.154Zm13.767 39.838-17.727-.938 10.723-18.571 17.407 1.491-10.403 18.018Z" fill="url(#hero-left_svg__J)"></path><path opacity="0.4" d="m192.567 104.739-22.565 39.085c8.505-6.755 17.808-11.578 27.118-14.945l2.205-3.818 8.017.687c10.983-2.792 21.564-3.735 30.388-3.513l6.55-11.345-51.713-6.151Z" fill="url(#hero-left_svg__K)"></path><path opacity="0.9" d="m151.852 61.318-30.774 53.301 38.272 47.635 33.209-57.521-40.707-43.415Zm5.718 65.91-12.941-15.291 10.506-18.196 13.209 14.826-10.774 18.661Z" fill="url(#hero-left_svg__L)"></path><path opacity="0.9" d="m203.399 70.593-51.547-9.275 40.707 43.415 51.716 6.153-40.876-40.293Zm-7.171 22.042L182.714 78.61l17.221 2.762 13.533 13.681-17.24-2.418Z" fill="url(#hero-left_svg__M)"></path><path d="m193.262 144.04 12.935.685c.224.105.351-.216.378-.263l7.91-13.7.609-1.065c.7-1.245 1.708-3.103 1.635-3.145-.072-.041-1.177 1.76-1.906 2.989l-.617 1.06-7.992 13.802-12.935-.684-1.004-.05c-1.426-.061-3.671-.124-3.675-.037-.005.087 2.235.262 3.658.352l1.004.056ZM210.334 91.658 200.116 81.33c-.022-.01-.091-.135-.191-.122l-.149-.023-.28-.045-.557-.09-1.104-.177-2.148-.344-3.858-.619-4.457-.715-1.139-.177c-1.413-.212-3.507-.49-3.521-.407-.014.083 2.063.473 3.471.715l1.138.187 12.567 2.043 10.217 10.328.667.67c1.013 1.004 2.633 2.56 2.694 2.5.062-.06-1.476-1.698-2.47-2.72l-.662-.676Z" fill="#DFE0DF"></path><path d="m152.615 97.78-8.07 13.978c-.23.182.078.404.1.45l.216.255.43.51.856 1.01 1.666 1.97 3.007 3.553 3.482 4.114.859 1.007c.935 1.08 2.342 2.656 2.406 2.602.064-.054-1.257-1.703-2.168-2.803l-.852-1.014-9.723-11.493 8.07-13.978.54-.942c.7-1.24 1.773-3.215 1.699-3.258-.075-.043-1.248 1.873-1.972 3.1l-.546.94Z" fill="#626262"></path><path d="m192.701 104.813-30.254 52.401-1.154 1.991c-.727 1.229-1.868 3.092-1.942 3.049-.074-.043.969-1.962 1.67-3.207l1.147-1.994 30.254-52.401.279.161Z" fill="#DFE0DF"></path><path d="m237.322 109.897-44.353-5.277-.275-.033c-.119-.015-.012.019-.128-.08l-.38-.406-.76-.811-1.522-1.622-3.037-3.24-5.976-6.373-10.932-11.659-12.775-13.624-2.797-2.977c-.989-1.03-2.475-2.533-2.536-2.476-.061.057 1.342 1.637 2.308 2.69l2.79 2.982 12.776 13.625 10.931 11.659 5.976 6.373 3.038 3.24 1.521 1.622.76.811.38.406.12.128c.072.064.182.037.205.052l.275.032 44.353 5.278 3.326.391c1.417.156 3.654.363 3.664.278.01-.085-2.213-.408-3.627-.59l-3.325-.399Z" fill="#DFE0DF"></path><path opacity="0.8" d="m189.872 104.25 5.666-9.813 70.936 8.901-5.267 9.123-71.335-8.211Z" fill="#212121"></path><path opacity="0.8" d="m212.239 42.24-88.368-15.9 69.783 74.428 88.662 10.549-70.077-69.077ZM195.54 94.437l-55.894-59.121L210.4 47.642l56.076 55.696-70.936-8.9Z" fill="url(#hero-left_svg__N)"></path><path d="m261.211 112.465-41.665 72.165 6.654 7.477 41.948-72.655-6.937-6.987Z" fill="#212121"></path><path opacity="0.8" d="m189.872 104.248 71.333 8.213 6.936 6.987-71.329-7.742-6.94-7.458Z" fill="#101010"></path><path opacity="0.8" d="m151.687 189.87 45.129-78.164-6.941-7.457-44.8 77.596 6.612 8.025Z" fill="#313131"></path><path d="m193.658 100.769-56.932 98.609 93.629 1.937 51.96-89.997-88.657-10.549Zm32.538 91.335-74.51-2.233 45.13-78.166 71.329 7.742-41.949 72.657Z" fill="url(#hero-left_svg__O)"></path><path d="m134.318 44.554-42.185 73.067-9.191-.854 42.533-73.67 8.843 1.457Z" fill="#313131"></path><path opacity="0.8" d="m180.967 103.225 8.911 1.025-55.562-59.697-8.841-1.456 55.492 60.128Z" fill="#101010"></path><path opacity="0.8" d="m135.756 181.524 45.208-78.301 8.909 1.028-44.814 77.62-9.303-.347ZM189.877 104.252l5.664-9.811-55.893-59.124-5.332 9.237 55.561 59.698Z" fill="#313131"></path><path d="m123.871 26.34-52.756 91.377 65.611 81.663 56.933-98.611-69.788-74.428Zm11.887 155.183-52.821-64.758 42.534-73.672 55.493 60.131-45.206 78.299Z" fill="#212121"></path><path d="m162.652 190.477 62.986 1.887.389.011c.114-.02.287.064.355-.042l36.107-62.54 2.851-4.954c1.2-2.135 2.927-5.32 2.803-5.391-.124-.072-2.018 3.016-3.267 5.123l-2.865 4.945-35.973 62.308-.384-.011-62.985-1.889-4.684-.133c-2.445-.051-6.295-.067-6.3.081-.005.148 3.84.361 6.284.459l4.683.146ZM193.422 100.633l-51.865 89.832-1.966 3.419c-1.202 2.134-2.99 5.424-2.863 5.498.127.073 2.082-3.12 3.329-5.229l1.978-3.411 51.865-89.833-.478-.276ZM135.544 181.696l-20.802-25.502-20.281-24.866-10.943-13.413-.695-.854c-.425-.243.065-.671.058-.753l36.28-62.839 2.98-5.149c1.247-2.108 3.203-5.301 3.33-5.228.127.073-1.661 3.363-2.863 5.498l-2.969 5.155-36.369 62.993.676.828 10.94 13.415 20.282 24.863 20.803 25.505-.427.347Z" fill="#626262"></path><path d="m270.399 109.621-76.04-9.049-.471-.056c-.203-.026-.021.032-.219-.137l-.651-.696-1.303-1.39-2.609-2.78-5.207-5.554-10.245-10.927-18.74-19.986-21.9-23.357-4.796-5.103c-1.696-1.768-4.242-4.344-4.346-4.245-.105.098 2.3 2.806 3.956 4.61l4.783 5.114 21.901 23.357 18.74 19.987 10.245 10.927 5.207 5.553 2.609 2.781 1.302 1.39.651.695.206.221c.123.11.312.063.351.088l.471.056 76.039 9.049 5.702.671c2.43.266 6.265.623 6.282.476.017-.146-3.793-.699-6.219-1.012l-5.699-.683Z" fill="#626262"></path><path d="M259.049 95.573 210.92 47.771l-.237-.236c-.068-.146-.391-.207-.443-.2l-.659-.116-1.317-.23-2.628-.458-5.21-.908-10.136-1.764-18.219-3.176-21.063-3.667-5.339-.923c-2.418-.394-6.002-.92-6.026-.778-.025.142 3.526.857 5.933 1.305l5.338.938 21.062 3.669 18.22 3.174 10.134 1.765 5.211.909 2.628.458 1.319.228.658.115c.171.04.083-.01.148.051l.237.236 48.129 47.802 3.156 3.126c1.752 1.706 4.551 4.351 4.657 4.245.105-.106-2.558-2.887-4.276-4.628l-3.148-3.135Z" fill="#626262"></path></g><g opacity="0.75"><path d="M85.613 294.732v-9.749l-67.433 30.99v10.441l67.433-31.682Z" fill="#313131"></path><path d="m25.819 312.766 52.195-23.988 2.196-1.016c2.214-1.048 5.463-2.648 5.404-2.779-.06-.13-3.39 1.294-5.627 2.292l-2.203 1.003-52.196 23.988-1.8.834c-2.212 1.041-5.67 2.738-5.608 2.873.062.135 3.602-1.384 5.834-2.384l1.805-.823Z" fill="#626262"></path><path d="M85.613 294.732v-9.749l76.416 25.336v10.315l-76.416-25.902Z" fill="#212121"></path><path d="m154.067 307.391-60.074-19.919-2.534-.832c-2.332-.745-5.8-1.793-5.845-1.656-.045.135 3.36 1.368 5.677 2.163l2.529.848 60.073 19.918 2.076.683c2.329.746 6.014 1.864 6.06 1.724.047-.14-3.577-1.445-5.89-2.238l-2.072-.691Z" fill="#626262"></path><path d="M84.506 277.964 0 316.134l97.62 37.079 82.086-44.166-95.2-31.083Zm11.641 67.184-77.966-29.174 67.433-30.99 76.416 25.336-65.883 34.828Z" fill="#626262"></path><path d="M76.035 203.575v78.23l9.582 3.177V206.18l-9.582-2.605Z" fill="#212121"></path><path d="M94.005 203.001v78.126l-8.388 3.856v-78.82l8.388-3.162Z" fill="#313131"></path><path d="M85.34 206.162v69.969l.007 2.659c.026 2.45.122 6.192.269 6.192.146 0 .243-3.742.27-6.192l.006-2.659v-69.969h-.552Z" fill="#626262"></path><path d="M85.586 206.208v-9.958l-67.434 24.7v10.666l67.434-25.408Z" fill="#313131"></path><path d="M85.586 206.208v-9.961L162 216.443v10.537l-76.415-20.772ZM54.764 273.96l-.026 17.595 16.784 6.162v-17.964l-16.758-5.793Z" fill="#212121"></path><path d="m35.352 300.508 16.86 6.547v-18.51l-16.86-6.156v18.119Z" fill="url(#hero-left_svg__P)"></path><path d="M105.481 264.295v17.019l-14.575 7.043v-17.425l14.575-6.637Z" fill="#A8A9A8"></path><path d="M86.052 273.141v17.56l-14.529 7.017v-17.963l14.53-6.614Z" fill="#313131"></path><path d="m52.21 288.547 14.464-6.584v18.09l-14.463 7.004v-18.51Z" fill="url(#hero-left_svg__Q)"></path><path d="m105.481 264.295-16.518-5.183-14.686 6.379 16.63 5.441 14.574-6.637Z" fill="url(#hero-left_svg__R)"></path><path d="m86.052 273.141-16.663-5.528-14.623 6.348 16.757 5.793 14.53-6.613Z" fill="url(#hero-left_svg__S)"></path><path d="m35.352 282.389 16.86 6.156 14.463-6.584-16.786-5.883-14.537 6.311Z" fill="url(#hero-left_svg__T)"></path><path d="M90.73 270.933v13.01l.047 2.615c.03.986.074 1.8.128 1.8.054 0 .098-.814.128-1.8l.047-2.615v-13.01h-.35ZM71.348 279.754v13.529l.047 2.634c.03.986.073 1.801.127 1.801.055 0 .098-.815.128-1.801l.047-2.634v-13.529h-.35Z" fill="#A8A9A8"></path><path d="M52.035 288.533v14.055l.049 2.654c.028.988.071 1.801.125 1.801.054 0 .1-.813.129-1.801l.048-2.654v-14.055h-.35Z" fill="#DFE0DF"></path><path d="M96.434 272.741v17.542l16.575 5.769v-17.889l-16.575-5.422ZM77.102 281.684v18.088l16.729 6.151v-18.456l-16.73-5.783Z" fill="#212121"></path><path d="m57.828 309.238 16.86 6.547v-19.031l-16.86-6.156v18.64Z" fill="url(#hero-left_svg__U)"></path><path d="M127.408 271.178v17.46l-14.4 7.415v-17.889l14.4-6.986Z" fill="#313131"></path><path d="M108.209 280.492v18.028l-14.38 7.402v-18.456l14.38-6.974Z" fill="#A8A9A8"></path><path d="m74.688 296.754 14.337-6.956v18.59l-14.338 7.397v-19.031Z" fill="url(#hero-left_svg__V)"></path><path d="m127.413 271.178-16.441-5.158-14.534 6.722 16.574 5.422 14.401-6.986Z" fill="url(#hero-left_svg__W)"></path><path d="m108.211 280.492-16.615-5.512-14.494 6.703 16.729 5.784 14.38-6.975Z" fill="url(#hero-left_svg__X)"></path><path d="m57.828 290.598 16.858 6.156 14.34-6.956-16.763-5.876-14.435 6.676Z" fill="url(#hero-left_svg__Y)"></path><path d="M112.84 278.163v13.457l.047 2.631c.03.986.073 1.801.128 1.801.054 0 .097-.815.127-1.801l.047-2.631v-13.457h-.349ZM93.656 287.467v14.002l.047 2.653c.03.986.074 1.801.128 1.801.054 0 .098-.815.128-1.801l.047-2.653v-14.002h-.35Z" fill="#A8A9A8"></path><path d="M74.516 296.74v14.557l.048 2.673c.029.986.071 1.801.126 1.801.054 0 .1-.815.128-1.801l.049-2.673V296.74h-.351Z" fill="#DFE0DF"></path><path d="m134.967 285.349-16.518-5.406v18.027l16.518 5.749v-18.37ZM116.076 295.16l-16.701-5.775v18.585l16.701 6.142V295.16Z" fill="#626262"></path><path d="M80.309 298.805v19.161l16.857 6.547v-19.552l-16.857-6.156Z" fill="url(#hero-left_svg__Z)"></path><path d="m134.969 303.718 14.172-7.795v-17.931l-14.172 7.356v18.37Z" fill="url(#hero-left_svg__aa)"></path><path d="M116.074 295.158v18.953l14.169-7.793v-18.516l-14.169 7.356Z" fill="url(#hero-left_svg__ab)"></path><path d="M97.184 304.965v19.539l14.169-7.796v-19.099l-14.17 7.356Z" fill="url(#hero-left_svg__ac)"></path><path d="m118.449 279.943 16.484 5.393 14.206-7.344-16.335-5.124-14.355 7.075Z" fill="url(#hero-left_svg__ad)"></path><path d="m130.245 287.801-16.532-5.485-14.338 7.067 16.669 5.763 14.201-7.345Z" fill="url(#hero-left_svg__ae)"></path><path d="m80.309 298.804 16.857 6.156 14.186-7.35-16.729-5.864-14.314 7.058Z" fill="url(#hero-left_svg__af)"></path><path d="M135.144 285.349v13.92l-.049 2.649c-.028.986-.074 1.801-.128 1.801-.054 0-.097-.815-.126-1.801l-.048-2.649v-13.92h.351ZM97.359 304.966v15.047l-.049 2.691c-.028.987-.074 1.801-.128 1.801-.054 0-.097-.814-.126-1.801l-.048-2.691v-15.047h.35ZM116.25 295.157v14.481l-.049 2.672c-.029.987-.074 1.8-.128 1.8-.055 0-.097-.813-.126-1.8l-.049-2.672v-14.481h.352Z" fill="#fff"></path><path d="m89.678 268.886 12.385-5.664-13.099-4.11-12.585 5.465 13.299 4.309Z" fill="url(#hero-left_svg__ag)"></path><path d="m81.597 274.976-10.056 4.577-12.129-4.172-.958-.325c-1.471-.491-3.658-1.182-3.688-1.096-.03.085 2.117.893 3.577 1.415l.955.336 4.381 1.515 3.748 1.296 2.049.707 1.04.361.522.18.26.09c.04.016.27.121.387.011l10.057-4.577.753-.348c1.403-.655 3.596-1.721 3.557-1.807-.038-.085-2.283.868-3.698 1.496l-.757.341Z" fill="#A8A9A8"></path><path d="m62.216 283.799-9.985 4.546-12.252-4.452-.958-.345c-1.463-.515-3.638-1.244-3.67-1.159-.03.086 2.103.929 3.553 1.477l.955.354 4.432 1.62 3.789 1.382 2.067.755 1.05.382.524.193.263.096c.04.017.273.128.391.014l9.986-4.545.757-.349c1.403-.655 3.596-1.721 3.557-1.807-.038-.085-2.283.868-3.698 1.496l-.761.342Z" fill="#fff"></path><path d="m123.011 273.119-9.988 4.846-11.925-3.882-.955-.307c-1.479-.467-3.677-1.122-3.705-1.035-.029.087 2.132.858 3.601 1.356l.951.317 4.301 1.406 3.685 1.206 2.018.661 1.027.335.514.169.257.084c.04.014.268.117.383.004l9.989-4.846.738-.362c1.386-.689 3.552-1.809 3.511-1.894-.041-.084-2.262.923-3.661 1.586l-.741.356Z" fill="#A8A9A8"></path><path d="m103.803 282.436-9.96 4.83-12.095-4.162-.958-.326c-1.471-.49-3.658-1.181-3.688-1.096-.03.086 2.117.894 3.577 1.416l.955.335 4.37 1.511 3.738 1.293 2.045.707 1.039.359.52.18.26.09c.041.015.272.124.39.007l9.959-4.83.745-.365c1.386-.69 3.552-1.81 3.512-1.894-.041-.084-2.262.923-3.661 1.585l-.748.36ZM84.615 291.744l-9.911 4.809-12.243-4.452-.96-.346c-1.463-.515-3.637-1.244-3.669-1.158-.031.085 2.102.929 3.553 1.478l.956.354 4.43 1.618 3.786 1.383 2.067.755 1.05.382.525.193.263.095c.04.016.274.131.393.012l9.913-4.809.75-.368c1.387-.689 3.553-1.809 3.512-1.894-.04-.084-2.261.924-3.66 1.586l-.755.362ZM144.796 280.046l-9.855 5.094-11.832-3.856-.95-.305c-1.479-.467-3.677-1.122-3.706-1.035-.028.087 2.132.858 3.6 1.357l.948.314 4.269 1.397 3.657 1.197 2.004.657 1.02.334.512.167.255.082c.04.015.269.122.384 0l9.854-5.094.725-.379c1.368-.724 3.505-1.899 3.462-1.982-.042-.083-2.237.982-3.619 1.678l-.728.374ZM125.893 289.857l-9.838 5.09-12.032-4.142-.956-.326c-1.471-.491-3.658-1.181-3.688-1.096-.03.086 2.118.894 3.577 1.416l.953.335 4.347 1.503 3.721 1.287 2.035.703 1.035.358.518.179.259.09c.041.014.274.128.391.002l9.839-5.088.733-.384c1.368-.725 3.505-1.9 3.462-1.983-.043-.083-2.237.982-3.619 1.679l-.737.377ZM106.994 299.673l-9.816 5.086-12.236-4.45-.96-.346c-1.463-.515-3.638-1.245-3.67-1.159-.03.086 2.103.929 3.553 1.478l.958.354 4.428 1.618 3.786 1.382 2.067.754 1.05.384.525.193.263.096c.04.015.278.135.397.007l9.815-5.086.742-.389c1.367-.725 3.503-1.903 3.461-1.985-.043-.083-2.237.983-3.618 1.682l-.745.381Z" fill="#fff"></path><path d="M90.933 265.113 74.3 259.788v-17.132l16.632 4.979v17.478Z" fill="#626262"></path><path d="m71.6 273.736-16.791-5.655.014-17.685 16.777 5.291v18.049Z" fill="#212121"></path><path d="m52.244 263.749-16.857-5.632v18.218l16.857 6.025v-18.611Z" fill="url(#hero-left_svg__ah)"></path><path d="m90.938 247.637 14.62-6.089v17.067l-14.62 6.5v-17.478Z" fill="#A8A9A8"></path><path d="m71.602 255.689 14.523-6.049v17.721l-14.523 6.377v-18.049Z" fill="#313131"></path><path d="m52.246 263.751 14.486-6.033v18.19l-14.486 6.455v-18.612Z" fill="url(#hero-left_svg__ai)"></path><path d="m74.3 242.658 16.633 4.978 14.62-6.088-16.52-4.742-14.732 5.852Z" fill="url(#hero-left_svg__aj)"></path><path d="m54.824 250.397 16.778 5.291 14.523-6.049-16.65-5.064-14.65 5.822Z" fill="url(#hero-left_svg__ak)"></path><path d="m35.387 258.117 16.86 5.632 14.483-6.033-16.786-5.382-14.557 5.783Z" fill="url(#hero-left_svg__al)"></path><path d="M90.766 247.636v13.061l.047 2.617c.03.986.073 1.801.127 1.801.055 0 .098-.815.128-1.801l.047-2.617v-13.061h-.35ZM71.43 255.688v13.611l.047 2.637c.03.986.073 1.8.127 1.8.055 0 .098-.814.128-1.8l.047-2.637v-13.611h-.35Z" fill="#A8A9A8"></path><path d="M52.074 263.75v14.153l.047 2.659c.03.986.074 1.8.128 1.8.054 0 .098-.814.128-1.8l.047-2.659V263.75h-.35Z" fill="#DFE0DF"></path><path d="m113.069 272.191-16.572-5.306-.02-17.593 16.592 4.941v17.958Z" fill="#212121"></path><path d="m113.066 254.234 14.435-6.389-.02 17.503-14.415 6.844v-17.958Z" fill="#313131"></path><path d="m96.473 249.291 16.592 4.942 14.434-6.39-16.449-4.721-14.577 6.169Z" fill="url(#hero-left_svg__am)"></path><path d="m77.152 257.443 16.71 5.285 14.38-6.382-16.592-5.036-14.498 6.133Z" fill="url(#hero-left_svg__an)"></path><path d="M112.895 254.233v13.523l.047 2.634c.03.986.073 1.801.127 1.801.055 0 .098-.815.128-1.801l.047-2.634v-13.523h-.349ZM93.71 262.759v14.086l.048 2.656c.03.986.074 1.801.128 1.801.054 0 .098-.815.128-1.801l.047-2.656v-14.086h-.35Z" fill="#A8A9A8"></path><path d="m135 260.805-16.43-4.918v18.072l16.43 5.262v-18.416Z" fill="#626262"></path><path d="m80.34 292.405 16.86 6.024v-19.66l-16.86-5.632v19.268Z" fill="url(#hero-left_svg__ao)"></path><path d="m111.393 272.036-14.21 6.723.023 19.669 14.187-7.201v-19.191Z" fill="url(#hero-left_svg__ap)"></path><path d="m135.008 279.219 14.169-7.206v-17.946l-14.169 6.737v18.415Z" fill="url(#hero-left_svg__aq)"></path><path d="m80.34 273.137 16.837 5.623 14.21-6.724-16.718-5.361-14.33 6.462Z" fill="url(#hero-left_svg__ar)"></path><path d="m149.169 254.067-16.233-4.659-14.366 6.478 16.387 4.904 14.212-6.723Z" fill="url(#hero-left_svg__as)"></path><path d="m97.352 278.761.017 15.17-.043 2.697c-.028.986-.07 1.801-.125 1.801-.054 0-.097-.815-.129-1.801l-.05-2.697-.018-15.17h.348ZM135.176 260.806v13.962l-.045 2.651c-.032.986-.075 1.801-.129 1.801-.054 0-.097-.815-.128-1.801l-.046-2.651v-13.962h.348Z" fill="#fff"></path><path d="m69.009 253.314 12.42-5.104-11.955-3.636-12.486 4.962 12.02 3.778Z" fill="url(#hero-left_svg__at)"></path><path d="m91.425 260.361 12.36-5.365-12.143-3.686-12.369 5.233 12.152 3.818Z" fill="url(#hero-left_svg__au)"></path><path d="m110.745 251.896 12.22-5.351-11.923-3.423-12.3 5.205 12.003 3.569Z" fill="url(#hero-left_svg__av)"></path><path d="m101.055 243.23-10.101 4.207-11.97-3.56-.952-.28c-1.49-.428-3.705-1.028-3.731-.941-.026.088 2.153.804 3.634 1.265l.95.289 4.314 1.292 3.695 1.106 2.022.606 1.028.307.515.154.258.077.151.046c.074.06.198-.043.22-.039l10.102-4.206.75-.316c1.422-.609 3.65-1.604 3.613-1.691-.036-.087-2.311.794-3.745 1.374l-.753.31ZM81.623 251.324l-9.999 4.166-12.13-3.803-.953-.295c-1.484-.45-3.69-1.082-3.716-.995-.028.087 2.14.835 3.614 1.317l.95.305 4.38 1.382 3.747 1.181 2.046.646 1.04.327.52.164.26.083.154.049c.074.061.2-.045.223-.039l9.998-4.165.754-.317c1.424-.609 3.65-1.604 3.614-1.691-.036-.087-2.31.794-3.745 1.374l-.757.311ZM62.225 259.404l-9.954 4.146-12.232-4.063-.953-.313c-1.476-.475-3.67-1.143-3.699-1.057-.029.085 2.127.87 3.592 1.378l.95.323 4.423 1.478 3.78 1.261 2.06.689 1.047.35.524.176.261.087c.039.017.268.111.381.012l9.954-4.145.758-.319c1.423-.61 3.65-1.604 3.613-1.691-.036-.087-2.31.793-3.745 1.375l-.76.313ZM123.039 249.625l-9.961 4.41-11.928-3.532-.949-.277c-1.491-.426-3.706-1.021-3.732-.934-.026.087 2.154.8 3.636 1.26l.946.286 4.301 1.282 3.683 1.096 2.016.6 1.025.306.513.152.257.077c.038.015.262.102.373.003l9.961-4.409.74-.332c1.41-.64 3.614-1.684 3.576-1.77-.038-.085-2.293.845-3.714 1.457l-.743.325ZM103.775 258.133l-9.904 4.396-12.06-3.794-.95-.296c-1.484-.45-3.689-1.084-3.716-.997-.027.087 2.14.836 3.614 1.321l.946.304 4.357 1.379 3.726 1.178 2.035.644 1.035.328.518.163.259.082c.038.016.265.109.378.006l9.904-4.395.744-.334c1.408-.642 3.611-1.688 3.573-1.773-.037-.086-2.291.846-3.712 1.461l-.747.327ZM106.97 273.934l-9.774 4.625-12.2-4.054-.953-.312c-1.476-.476-3.67-1.143-3.699-1.058-.028.086 2.127.871 3.592 1.379l.95.322 4.414 1.474 3.772 1.26 2.058.688 1.044.348.523.175.261.087c.04.016.272.119.387.006l9.774-4.624.742-.356c1.393-.675 3.57-1.775 3.53-1.859-.04-.084-2.27.902-3.677 1.551l-.744.348ZM144.774 255.956l-9.799 4.636-11.727-3.49-.939-.275c-1.49-.428-3.704-1.028-3.731-.941-.026.087 2.154.804 3.634 1.265l.935.285 4.23 1.266 3.623 1.084 1.984.594 1.009.302.506.151.253.076c.039.013.261.104.372 0l9.799-4.636.724-.347c1.393-.676 3.57-1.775 3.53-1.859-.04-.084-2.27.902-3.676 1.55l-.727.339Z" fill="#fff"></path><path d="m90.917 241.778-16.73-4.89v-17.189l16.73 4.541v17.538ZM71.529 249.664l-16.806-5.191v-17.768l16.806 4.817v18.142Z" fill="#626262"></path><path d="m52.212 238.785-16.86-5.104v18.344l16.86 5.5v-18.74Z" fill="url(#hero-left_svg__aw)"></path><path d="m105.358 218.722-14.44 5.519v17.54l14.44-5.873v-17.186Z" fill="url(#hero-left_svg__ax)"></path><path d="m71.531 249.665 14.444-5.875v-17.751l-14.444 5.452v18.174Z" fill="url(#hero-left_svg__ay)"></path><path d="m52.21 257.524 14.444-5.876v-18.315l-14.443 5.452v18.739Z" fill="url(#hero-left_svg__az)"></path><path d="m85.968 226.04-16.613-4.571-14.586 5.251 16.755 4.804 14.444-5.484Z" fill="url(#hero-left_svg__aA)"></path><path d="m49.866 228.453-14.514 5.227 16.857 5.104 14.443-5.452-16.786-4.879Z" fill="url(#hero-left_svg__aB)"></path><path d="m105.349 218.722-16.512-4.298L74.18 219.7l16.729 4.541 14.44-5.519Z" fill="url(#hero-left_svg__aC)"></path><path d="M91.093 224.206v13.119l-.048 2.618c-.029.986-.075 1.801-.129 1.801-.054 0-.097-.815-.125-1.801l-.049-2.618v-13.119h.351ZM71.704 231.489v13.7l-.046 2.641c-.031.988-.074 1.801-.128 1.801-.055 0-.097-.813-.129-1.801l-.045-2.641v-13.7h.348Z" fill="#A8A9A8"></path><path d="M52.035 238.772v14.276l.049 2.663c.028.986.071 1.8.125 1.8.054 0 .1-.814.129-1.8l.048-2.663v-14.276h-.35Z" fill="#DFE0DF"></path><path d="m91.607 245.396-14.498 5.993 16.73 5.17 14.383-6.237-16.615-4.926ZM72.282 253.384l-14.458 5.975 16.863 5.5 14.358-6.224-16.763-5.251ZM113.02 248.243l14.409-6.247-16.441-4.609-14.543 6.01 16.575 4.846Z" fill="#626262"></path><path d="m113.021 248.243-16.677-4.875v-17.654l16.677 4.526v18.003Z" fill="#626262"></path><path d="m74.688 245.591-16.86-5.105v18.872l16.86 5.501v-19.268Z" fill="url(#hero-left_svg__aD)"></path><path d="m127.289 224.432-14.269 5.807v18.004l14.269-6.186v-17.625Z" fill="url(#hero-left_svg__aE)"></path><path d="m74.688 264.858 14.32-6.208v-18.82l-14.32 5.76v19.268Z" fill="url(#hero-left_svg__aF)"></path><path d="m57.824 240.485 16.863 5.106 14.32-5.761-16.765-4.874-14.418 5.529Z" fill="url(#hero-left_svg__aG)"></path><path d="m113.017 230.239 14.27-5.807-16.344-4.254-14.603 5.535 16.677 4.526Z" fill="url(#hero-left_svg__aH)"></path><path d="M113.196 231.665v12.106l-.046 2.636c-.031.986-.074 1.8-.128 1.8-.055 0-.097-.814-.129-1.8l-.045-2.636v-12.106h.348Z" fill="#A8A9A8"></path><path d="M74.512 245.578v14.786l.048 2.681c.029.986.072 1.8.126 1.8.054 0 .1-.814.128-1.8l.049-2.681v-14.786h-.351Z" fill="#DFE0DF"></path><path d="m99.41 258.281 16.667 5.148 14.114-6.594-16.438-4.872-14.343 6.318ZM134.927 254.647l14.212-6.565-16.241-4.554-14.363 6.327 16.392 4.792ZM111.247 265.588l-16.615-5.203-14.323 6.309 16.731 5.458 14.207-6.564Z" fill="#626262"></path><path d="m116.073 263.429-16.717-5.164v-18.758l16.717 4.793v19.129ZM134.93 254.648l-16.492-4.822v-18.118l16.492 4.474v18.466Z" fill="#626262"></path><path d="m97.166 252.396-16.857-5.104v19.4l16.857 5.5v-19.796Z" fill="url(#hero-left_svg__aI)"></path><path d="M130.247 256.852v-18.63l-14.169 6.078v19.129l14.169-6.577Z" fill="url(#hero-left_svg__aJ)"></path><path d="m134.969 254.658 14.172-6.576v-17.964l-14.172 6.077v18.463Z" fill="url(#hero-left_svg__aK)"></path><path d="m111.354 246.325-14.186 6.071v19.796l14.186-6.571v-19.296Z" fill="url(#hero-left_svg__aL)"></path><path d="m134.973 236.196 14.169-6.077-16.384-4.264-14.32 5.853 16.535 4.488Z" fill="url(#hero-left_svg__aM)"></path><path d="m113.659 233.66-14.303 5.847 16.717 4.792 14.169-6.077-16.583-4.562Z" fill="url(#hero-left_svg__aN)"></path><path d="m80.309 247.293 16.877 5.11 14.166-6.078-16.76-4.871-14.283 5.839Z" fill="url(#hero-left_svg__aO)"></path><path d="M116.253 244.3v14.651l-.048 2.677c-.029.986-.074 1.801-.128 1.801-.055 0-.098-.815-.126-1.801l-.049-2.677V244.3h.351ZM135.144 236.196v14.009l-.049 2.653c-.028.986-.074 1.8-.128 1.8-.054 0-.097-.814-.126-1.8l-.048-2.653v-14.009h.351ZM97.343 252.397v15.293l-.005.581c-.018 1.551-.078 3.921-.172 3.921-.091 0-.154-2.37-.168-3.921l-.006-.581v-15.293h.351ZM81.407 227.514l-10.515 3.827-11.451-3.406-.94-.276c-1.491-.428-3.705-1.027-3.731-.94-.027.087 2.153.803 3.633 1.264l.938.285 4.109 1.231 3.529 1.057 1.94.579.99.297.497.148.248.075.144.042c.07.056.192-.032.213-.028l10.516-3.827.754-.278c1.45-.544 3.719-1.436 3.687-1.524-.032-.089-2.345.687-3.805 1.203l-.756.271ZM62.105 234.862l-9.866 3.726-12.213-3.674-.947-.281c-1.488-.433-3.7-1.039-3.727-.952-.027.087 2.15.81 3.63 1.276l.942.291 4.416 1.337 3.771 1.141 2.056.622 1.043.317.521.157.26.08.15.044c.077.059.198-.038.221-.033l9.866-3.724.756-.288c1.443-.561 3.701-1.481 3.668-1.568-.032-.089-2.335.715-3.79 1.247l-.757.282ZM84.494 241.459l-9.781 3.934-12.215-3.675-.946-.281c-1.489-.432-3.701-1.039-3.727-.952-.027.087 2.15.811 3.629 1.276l.943.291 4.419 1.339 3.772 1.141 2.056.622 1.043.317.523.157.26.08.152.045c.075.06.2-.042.221-.037l9.782-3.934.749-.305c1.43-.592 3.67-1.56 3.634-1.647-.035-.087-2.32.765-3.762 1.329l-.752.3ZM122.795 226.073l-9.751 3.97-12.006-3.237-.94-.249c-1.501-.39-3.73-.932-3.754-.844-.024.087 2.173.748 3.665 1.17l.937.26 4.336 1.177 3.706 1.006 2.024.548 1.027.28.515.14.256.07.149.04c.075.054.195-.043.216-.039l9.751-3.968.737-.304c1.428-.598 3.663-1.574 3.628-1.661-.036-.087-2.317.775-3.757 1.344l-.739.297Z" fill="#fff"></path><path d="m144.678 231.842-9.692 4.156-11.863-3.199-.935-.248c-1.502-.39-3.731-.932-3.754-.843-.024.087 2.173.747 3.665 1.17l.932.258 4.283 1.163 3.662.993 2.002.543 1.018.277.509.137.254.07.15.04c.073.057.194-.045.215-.04l9.691-4.156.727-.317c1.417-.624 3.633-1.642 3.596-1.728-.037-.086-2.302.817-3.731 1.414l-.729.31ZM125.774 239.948l-9.681 4.152-12.055-3.433-.941-.266c-1.495-.411-3.716-.983-3.741-.896-.025.087 2.162.778 3.647 1.223l.939.274 4.357 1.249 3.723 1.067 2.032.584 1.032.295.516.148.257.073.152.044c.074.059.197-.047.219-.041l9.682-4.152.735-.32c1.417-.624 3.633-1.642 3.595-1.728-.037-.085-2.302.818-3.73 1.414l-.738.313ZM106.877 248.054l-9.67 4.149-12.224-3.678-.947-.282c-1.488-.432-3.7-1.038-3.727-.951-.027.087 2.15.81 3.63 1.275l.942.291 4.425 1.34 3.777 1.143 2.058.624 1.044.315.522.158.262.08.154.046c.074.063.199-.046.222-.04l9.67-4.149.742-.323c1.417-.623 3.633-1.642 3.596-1.728-.037-.085-2.303.818-3.731 1.414l-.745.316ZM100.816 220.266l-9.88 3.777-12.058-3.249-.944-.251c-1.502-.39-3.73-.932-3.754-.843-.024.087 2.173.747 3.665 1.17l.942.261 4.352 1.181 3.72 1.009 2.032.552 1.032.28.517.14.257.07.147.04c.078.054.194-.039.216-.034l9.88-3.776.747-.29c1.441-.566 3.696-1.495 3.662-1.582-.033-.087-2.333.725-3.784 1.263l-.749.282Z" fill="#fff"></path><path opacity="0.9" d="m77.059 233.113 14.46-5.545 16.598 4.566-14.346 5.77-16.712-4.791Z" fill="#FDB913"></path><path opacity="0.9" d="M91.52 227.569v-18.935l16.597 4.19v19.312l-16.598-4.567Z" fill="#FDE8B1"></path><path opacity="0.9" d="M77.059 233.112v-19.433l14.391-5.064v18.978l-14.391 5.519Z" fill="#FDD46E"></path><path opacity="0.75" d="m93.84 237.889 14.275-5.756v-19.31l-14.275 5.271v19.795Z" fill="url(#hero-left_svg__aP)"></path><path opacity="0.75" d="m93.842 237.891-16.783-4.778V213.68l16.783 4.415v19.796Z" fill="url(#hero-left_svg__aQ)"></path><path opacity="0.75" d="m77.059 213.679 16.78 4.415 14.278-5.271-16.667-4.208-14.391 5.064Z" fill="url(#hero-left_svg__aR)"></path><path d="M94.017 218.095v15.294l-.004.58c-.016 1.551-.078 3.921-.17 3.921-.093 0-.154-2.37-.17-3.921l-.005-.58v-15.294h.35Z" fill="#FEF9EB"></path><path d="m103.573 214.315-9.704 3.582-12.112-3.162-.938-.242c-1.504-.377-3.737-.902-3.76-.814-.023.089 2.179.731 3.674 1.142l.935.251 4.377 1.152 3.738.984 2.037.535 1.034.273.517.135c.196.012.28.163.618.075l9.704-3.583.744-.279c1.447-.55 3.712-1.452 3.68-1.541-.033-.088-2.341.698-3.799 1.22l-.745.272Z" fill="#FEF9EB"></path><path opacity="0.9" d="m43.383 290.122 14.46-5.545 16.598 4.566-14.346 5.77-16.712-4.791Z" fill="#FDB913"></path><path opacity="0.9" d="M57.844 284.578v-18.935l16.597 4.19v19.312l-16.597-4.567Z" fill="#FDE8B1"></path><path opacity="0.9" d="M43.383 290.121v-19.433l14.392-5.064v18.978l-14.392 5.519Z" fill="#FDD46E"></path><path opacity="0.75" d="m60.164 294.898 14.275-5.756v-19.31l-14.275 5.271v19.795Z" fill="url(#hero-left_svg__aS)"></path><path opacity="0.75" d="m60.166 294.899-16.783-4.778v-19.433l16.783 4.415v19.796Z" fill="url(#hero-left_svg__aT)"></path><path opacity="0.75" d="m43.383 270.688 16.78 4.415 14.278-5.271-16.666-4.208-14.392 5.064Z" fill="url(#hero-left_svg__aU)"></path><path d="M60.342 275.104v15.294l-.005.58c-.016 1.551-.077 3.921-.17 3.921-.093 0-.154-2.37-.17-3.921l-.005-.58v-15.294h.35Z" fill="#FEF9EB"></path><path d="m69.897 271.324-9.704 3.582-12.112-3.162-.937-.242c-1.505-.377-3.738-.902-3.761-.813-.023.088 2.179.73 3.674 1.141l.935.251 4.378 1.152 3.738.984 2.036.535 1.034.273.518.135c.195.012.278.163.617.075l9.705-3.583.743-.279c1.447-.55 3.712-1.452 3.68-1.541-.033-.088-2.34.698-3.798 1.22l-.746.272Z" fill="#FEF9EB"></path><path opacity="0.9" d="m116.082 287.562 14.46-5.545 16.598 4.566-14.346 5.77-16.712-4.791Z" fill="#FDB913"></path><path opacity="0.9" d="M130.543 282.016v-18.935l16.598 4.19v19.312l-16.598-4.567Z" fill="#FDE8B1"></path><path opacity="0.9" d="M116.082 287.56v-19.432l14.392-5.065v18.978l-14.392 5.519Z" fill="#FDD46E"></path><path opacity="0.75" d="m132.863 292.337 14.275-5.756v-19.31l-14.275 5.271v19.795Z" fill="url(#hero-left_svg__aV)"></path><path opacity="0.75" d="m132.865 292.338-16.783-4.778v-19.433l16.783 4.415v19.796Z" fill="url(#hero-left_svg__aW)"></path><path opacity="0.75" d="m116.082 268.128 16.781 4.414 14.277-5.271-16.666-4.208-14.392 5.065Z" fill="url(#hero-left_svg__aX)"></path><path d="M133.041 272.542v15.294l-.004.58c-.017 1.551-.078 3.921-.171 3.921-.093 0-.154-2.37-.17-3.921l-.005-.58v-15.294h.35Z" fill="#FEF9EB"></path><path d="m142.596 268.763-9.704 3.582-12.112-3.162-.937-.242c-1.505-.377-3.738-.902-3.761-.814-.023.089 2.179.731 3.674 1.142l.935.251 4.378 1.152 3.738.984 2.037.535 1.033.273.518.135c.195.012.279.163.617.075l9.705-3.583.743-.279c1.447-.55 3.712-1.452 3.68-1.541-.032-.088-2.34.698-3.798 1.22l-.746.272Z" fill="#FEF9EB"></path><path opacity="0.8" d="M96.113 255.535v-11.331l65.883-27.76v10.535l-65.883 28.556Z" fill="#212121"></path><path opacity="0.8" d="M84.478 190.65 0 221.065l97.648 29.563 82.058-35.194-95.228-24.784Zm11.637 53.554L18.15 220.95l67.437-24.703 76.411 20.196-65.883 27.761Z" fill="url(#hero-left_svg__aY)"></path><path d="M162 226.98v83.33l9.501 3.148v-83.895L162 226.98Z" fill="#212121"></path><path opacity="0.8" d="m96.113 255.534 65.883-28.554 9.501 2.583-65.644 28.959-9.74-2.988Z" fill="#101010"></path><path opacity="0.8" d="M105.853 348.779v-90.256l-9.74-2.988v89.6l9.74 3.644Z" fill="#313131"></path><path d="M97.648 250.63v113.864l82.054-45.138V215.438L97.648 250.63Zm73.847 62.829-65.644 35.32v-90.258l65.644-28.959v83.897Z" fill="url(#hero-left_svg__aZ)"></path><path d="M18.153 231.616v84.37l-8.387 3.856v-85.067l8.387-3.159Z" fill="#313131"></path><path opacity="0.8" d="m87.887 259.101 8.23-3.567-77.966-23.918-8.385 3.159 78.121 24.326Z" fill="#101010"></path><path opacity="0.8" d="M87.887 349.514V259.1l8.23-3.565v89.627l-8.23 4.352ZM96.118 255.534v-11.328L18.152 220.95v10.666l77.966 23.918Z" fill="#313131"></path><path d="M0 221.065v105.512l97.652 37.918V250.628L0 221.065Zm87.886 128.448L9.762 319.842v-85.069l78.124 24.328v90.412Z" fill="#212121"></path><path d="m115.653 343.82 55.491-29.858.342-.185c.09-.075.281-.088.287-.214v-72.215l-.008-5.715c-.028-2.45-.125-6.071-.268-6.071-.143 0-.24 3.621-.269 6.071l-.008 5.715v71.947l-.337.182-55.491 29.857-4.124 2.226c-2.142 1.179-5.485 3.09-5.415 3.22.07.131 3.506-1.607 5.672-2.744l4.128-2.216ZM97.379 250.628v103.73l.007 3.944c.026 2.449.122 6.192.269 6.192.146 0 .243-3.743.27-6.192l.006-3.944v-103.73h-.552ZM87.784 349.77l-30.767-11.684-29.996-11.394-16.183-6.145-1.029-.392c-.49.002-.28-.613-.327-.681v-72.559l.007-5.95c.026-2.449.123-6.192.27-6.192.146 0 .243 3.743.269 6.192l.007 5.95v72.737l.999.379 16.182 6.147 29.996 11.392 30.768 11.686-.196.514Z" fill="#626262"></path><path d="m168.537 219.926-70.376 30.183-.436.187c-.19.079-.002.038-.26-.009l-.911-.277-1.823-.553-3.65-1.104-7.286-2.206-14.336-4.34-26.222-7.939-30.645-9.278-6.705-2.021c-2.352-.683-5.845-1.641-5.887-1.503-.041.137 3.396 1.28 5.732 2.015l6.7 2.037 30.645 9.277 26.222 7.939 14.336 4.34 7.286 2.206 3.65 1.105 1.823.552.912.277.288.088c.161.034.302-.101.348-.099l.436-.187 70.376-30.183 5.274-2.27c2.237-.985 5.737-2.593 5.678-2.729-.058-.135-3.635 1.292-5.891 2.234l-5.278 2.258Z" fill="#626262"></path><path d="M151.687 213.434 86.105 196.1l-.323-.086c-.132-.092-.442.016-.484.048l-.629.229-1.255.46-2.505.917-4.966 1.819-9.66 3.54-17.366 6.359-20.075 7.356-5.085 1.87c-2.29.868-5.658 2.204-5.608 2.339.05.135 3.483-1.021 5.791-1.836l5.092-1.857 20.074-7.353 17.367-6.362 9.66-3.538 4.966-1.818 2.504-.918 1.257-.462.627-.229c.168-.05.067-.05.154-.03l.323.086 65.582 17.334 4.296 1.129c2.371.601 6.117 1.492 6.156 1.347.038-.144-3.659-1.221-6.017-1.87l-4.294-1.14Z" fill="#626262"></path></g></g><defs><linearGradient id="hero-left_svg__b" x1="165.502" y1="447.791" x2="184.148" y2="438.364" gradientUnits="userSpaceOnUse"><stop stop-color="#212121"></stop><stop offset="1" stop-color="#626262"></stop></linearGradient><linearGradient id="hero-left_svg__c" x1="206.47" y1="423.136" x2="226.109" y2="410.793" gradientUnits="userSpaceOnUse"><stop stop-color="#212121"></stop><stop offset="1" stop-color="#626262"></stop></linearGradient><linearGradient id="hero-left_svg__d" x1="126.62" y1="431.433" x2="148.635" y2="419.726" gradientUnits="userSpaceOnUse"><stop stop-color="#212121"></stop><stop offset="1" stop-color="#626262"></stop></linearGradient><linearGradient id="hero-left_svg__e" x1="174.593" y1="421.804" x2="200.968" y2="404.904" gradientUnits="userSpaceOnUse"><stop stop-color="#212121"></stop><stop offset="1" stop-color="#626262"></stop></linearGradient><linearGradient id="hero-left_svg__f" x1="206.905" y1="382.739" x2="221.063" y2="374.231" gradientUnits="userSpaceOnUse"><stop stop-color="#212121"></stop><stop offset="1" stop-color="#626262"></stop></linearGradient><linearGradient id="hero-left_svg__g" x1="135.852" y1="405.179" x2="176.691" y2="441.28" gradientUnits="userSpaceOnUse"><stop stop-color="#FDB913"></stop><stop offset="1" stop-color="#FDD46E"></stop></linearGradient><linearGradient id="hero-left_svg__h" x1="161.958" y1="450.4" x2="190.701" y2="463.952" gradientUnits="userSpaceOnUse"><stop stop-color="#313131"></stop><stop offset="1" stop-color="#626262"></stop></linearGradient><linearGradient id="hero-left_svg__i" x1="124.339" y1="432.128" x2="165.409" y2="468.096" gradientUnits="userSpaceOnUse"><stop stop-color="#313131"></stop><stop offset="1" stop-color="#626262"></stop></linearGradient><linearGradient id="hero-left_svg__j" x1="139.3" y1="422.876" x2="111.817" y2="410.441" gradientUnits="userSpaceOnUse"><stop stop-color="#FDD46E"></stop><stop offset="1" stop-color="#FDB913"></stop></linearGradient><linearGradient id="hero-left_svg__k" x1="173.4" y1="422.261" x2="214.346" y2="460.146" gradientUnits="userSpaceOnUse"><stop stop-color="#313131"></stop><stop offset="1" stop-color="#626262"></stop></linearGradient><linearGradient id="hero-left_svg__l" x1="188.096" y1="412.547" x2="159.815" y2="398.728" gradientUnits="userSpaceOnUse"><stop stop-color="#FDD46E"></stop><stop offset="1" stop-color="#FDB913"></stop></linearGradient><linearGradient id="hero-left_svg__m" x1="212.984" y1="375.884" x2="213.718" y2="347.022" gradientUnits="userSpaceOnUse"><stop stop-color="#FDB913"></stop><stop offset="1" stop-color="#FDE8B1"></stop></linearGradient><linearGradient id="hero-left_svg__n" x1="188.635" y1="411.356" x2="187.93" y2="382.321" gradientUnits="userSpaceOnUse"><stop stop-color="#FDB913"></stop><stop offset="1" stop-color="#FDE8B1"></stop></linearGradient><linearGradient id="hero-left_svg__o" x1="214.39" y1="416.561" x2="200.648" y2="364.943" gradientUnits="userSpaceOnUse"><stop stop-color="#FDB913"></stop><stop offset="1" stop-color="#FDE8B1"></stop></linearGradient><linearGradient id="hero-left_svg__p" x1="239.21" y1="421.301" x2="225.429" y2="369.036" gradientUnits="userSpaceOnUse"><stop stop-color="#626262"></stop><stop offset="1" stop-color="#A8A9A8"></stop></linearGradient><linearGradient id="hero-left_svg__q" x1="217.098" y1="459.494" x2="201.115" y2="405.155" gradientUnits="userSpaceOnUse"><stop stop-color="#626262"></stop><stop offset="1" stop-color="#A8A9A8"></stop></linearGradient><linearGradient id="hero-left_svg__r" x1="227.821" y1="439.25" x2="225.534" y2="409.79" gradientUnits="userSpaceOnUse"><stop stop-color="#626262"></stop><stop offset="1" stop-color="#A8A9A8"></stop></linearGradient><linearGradient id="hero-left_svg__s" x1="213.381" y1="346.576" x2="187.053" y2="363.315" gradientUnits="userSpaceOnUse"><stop stop-color="#FDE8B1"></stop><stop offset="1" stop-color="#FDB913"></stop></linearGradient><linearGradient id="hero-left_svg__t" x1="176.316" y1="371.358" x2="150.475" y2="386.277" gradientUnits="userSpaceOnUse"><stop stop-color="#FDE8B1"></stop><stop offset="1" stop-color="#FDB913"></stop></linearGradient><linearGradient id="hero-left_svg__u" x1="163.238" y1="388.138" x2="136.244" y2="403.723" gradientUnits="userSpaceOnUse"><stop stop-color="#FDE8B1"></stop><stop offset="1" stop-color="#FDB913"></stop></linearGradient><linearGradient id="hero-left_svg__v" x1="139.258" y1="393.92" x2="112.264" y2="409.505" gradientUnits="userSpaceOnUse"><stop stop-color="#FDE8B1"></stop><stop offset="1" stop-color="#FDB913"></stop></linearGradient><linearGradient id="hero-left_svg__w" x1="153.278" y1="377.278" x2="126.745" y2="392.596" gradientUnits="userSpaceOnUse"><stop stop-color="#FDE8B1"></stop><stop offset="1" stop-color="#FDB913"></stop></linearGradient><linearGradient id="hero-left_svg__x" x1="200.704" y1="364.047" x2="174.243" y2="380.555" gradientUnits="userSpaceOnUse"><stop stop-color="#FDE8B1"></stop><stop offset="1" stop-color="#FDB913"></stop></linearGradient><linearGradient id="hero-left_svg__y" x1="187.622" y1="381.17" x2="161.161" y2="397.678" gradientUnits="userSpaceOnUse"><stop stop-color="#FDE8B1"></stop><stop offset="1" stop-color="#FDB913"></stop></linearGradient><linearGradient id="hero-left_svg__z" x1="190.315" y1="354.048" x2="163.587" y2="370.095" gradientUnits="userSpaceOnUse"><stop stop-color="#FDE8B1"></stop><stop offset="1" stop-color="#FDB913"></stop></linearGradient><linearGradient id="hero-left_svg__A" x1="167.083" y1="360.694" x2="139.628" y2="376.546" gradientUnits="userSpaceOnUse"><stop stop-color="#FDE8B1"></stop><stop offset="1" stop-color="#FDB913"></stop></linearGradient><linearGradient id="hero-left_svg__B" x1="82.227" y1="414.238" x2="231.612" y2="322.972" gradientUnits="userSpaceOnUse"><stop stop-color="#313131"></stop><stop offset="0.469" stop-color="#626262"></stop><stop offset="1" stop-color="#A8A9A8"></stop></linearGradient><linearGradient id="hero-left_svg__C" x1="180.717" y1="394.176" x2="285.812" y2="412.792" gradientUnits="userSpaceOnUse"><stop stop-color="#A8A9A8"></stop><stop offset="0.51" stop-color="#626262"></stop><stop offset="1" stop-color="#313131"></stop></linearGradient><linearGradient id="hero-left_svg__D" x1="158.544" y1="125.786" x2="162.56" y2="113.76" gradientUnits="userSpaceOnUse"><stop stop-color="#CE9813"></stop><stop offset="1" stop-color="#FDB913"></stop></linearGradient><linearGradient id="hero-left_svg__E" x1="155.413" y1="94.704" x2="162.434" y2="113.98" gradientUnits="userSpaceOnUse"><stop stop-color="#FDB913"></stop><stop offset="1" stop-color="#CE9813"></stop></linearGradient><linearGradient id="hero-left_svg__F" x1="206.387" y1="144.332" x2="195.056" y2="132.521" gradientUnits="userSpaceOnUse"><stop stop-color="#FDD46E"></stop><stop offset="0.536" stop-color="#FDB913"></stop><stop offset="1" stop-color="#E0A30D"></stop></linearGradient><linearGradient id="hero-left_svg__G" x1="206.385" y1="144.332" x2="208.73" y2="126.072" gradientUnits="userSpaceOnUse"><stop stop-color="#FDD46E"></stop><stop offset="0.516" stop-color="#FDB913"></stop><stop offset="1" stop-color="#E0A30D"></stop></linearGradient><linearGradient id="hero-left_svg__H" x1="183.883" y1="78.352" x2="196.21" y2="92.495" gradientUnits="userSpaceOnUse"><stop stop-color="#FDD46E"></stop><stop offset="1" stop-color="#FDB913"></stop></linearGradient><linearGradient id="hero-left_svg__I" x1="200.308" y1="82.859" x2="202.897" y2="94.6" gradientUnits="userSpaceOnUse"><stop stop-color="#FDB913"></stop><stop offset="1" stop-color="#DAA013"></stop></linearGradient><linearGradient id="hero-left_svg__J" x1="193.44" y1="106.413" x2="213.718" y2="164.08" gradientUnits="userSpaceOnUse"><stop stop-color="#313131"></stop><stop offset="0.538" stop-color="#626262"></stop><stop offset="1" stop-color="#A8A9A8"></stop></linearGradient><linearGradient id="hero-left_svg__K" x1="192.969" y1="106.725" x2="213.847" y2="163.861" gradientUnits="userSpaceOnUse"><stop stop-color="#A8A9A8"></stop><stop offset="1" stop-color="#626262"></stop></linearGradient><linearGradient id="hero-left_svg__L" x1="158.861" y1="160.22" x2="151.519" y2="64.938" gradientUnits="userSpaceOnUse"><stop stop-color="#626262"></stop><stop offset="0.474" stop-color="#313131"></stop><stop offset="1" stop-color="#212121"></stop></linearGradient><linearGradient id="hero-left_svg__M" x1="242.916" y1="110.973" x2="153.42" y2="61.644" gradientUnits="userSpaceOnUse"><stop stop-color="#717171"></stop><stop offset="0.495" stop-color="#626262"></stop><stop offset="1" stop-color="#212121"></stop></linearGradient><linearGradient id="hero-left_svg__N" x1="126.27" y1="27.401" x2="280.001" y2="111.139" gradientUnits="userSpaceOnUse"><stop stop-color="#313131"></stop><stop offset="0.469" stop-color="#626262"></stop><stop offset="1" stop-color="#A8A9A8"></stop></linearGradient><linearGradient id="hero-left_svg__O" x1="192.89" y1="102.665" x2="229.316" y2="202.987" gradientUnits="userSpaceOnUse"><stop stop-color="#A8A9A8"></stop><stop offset="0.51" stop-color="#626262"></stop><stop offset="1" stop-color="#313131"></stop></linearGradient><linearGradient id="hero-left_svg__P" x1="51.988" y1="289.342" x2="36.045" y2="300.982" gradientUnits="userSpaceOnUse"><stop stop-color="#626262"></stop><stop offset="1" stop-color="#313131"></stop></linearGradient><linearGradient id="hero-left_svg__Q" x1="52.747" y1="288.837" x2="66.665" y2="302.249" gradientUnits="userSpaceOnUse"><stop stop-color="#626262"></stop><stop offset="1" stop-color="#A8A9A8"></stop></linearGradient><linearGradient id="hero-left_svg__R" x1="35.441" y1="265.022" x2="149.723" y2="265.022" gradientUnits="userSpaceOnUse"><stop stop-color="#E5E5E5"></stop><stop offset="1" stop-color="#CCC"></stop></linearGradient><linearGradient id="hero-left_svg__S" x1="59.074" y1="274.664" x2="83.874" y2="273.905" gradientUnits="userSpaceOnUse"><stop stop-color="#313131"></stop><stop offset="1" stop-color="#626262"></stop></linearGradient><linearGradient id="hero-left_svg__T" x1="35.439" y1="282.312" x2="65.4" y2="282.509" gradientUnits="userSpaceOnUse"><stop stop-color="#313131"></stop><stop offset="1" stop-color="#626262"></stop></linearGradient><linearGradient id="hero-left_svg__U" x1="74.76" y1="296.175" x2="58.057" y2="308.828" gradientUnits="userSpaceOnUse"><stop stop-color="#626262"></stop><stop offset="1" stop-color="#313131"></stop></linearGradient><linearGradient id="hero-left_svg__V" x1="74.759" y1="297.694" x2="88.93" y2="310.347" gradientUnits="userSpaceOnUse"><stop stop-color="#626262"></stop><stop offset="1" stop-color="#A8A9A8"></stop></linearGradient><linearGradient id="hero-left_svg__W" x1="100.32" y1="272.641" x2="121.577" y2="271.882" gradientUnits="userSpaceOnUse"><stop stop-color="#313131"></stop><stop offset="1" stop-color="#626262"></stop></linearGradient><linearGradient id="hero-left_svg__X" x1="77.291" y1="282.256" x2="106.14" y2="282.762" gradientUnits="userSpaceOnUse"><stop stop-color="#313131"></stop><stop offset="1" stop-color="#626262"></stop></linearGradient><linearGradient id="hero-left_svg__Y" x1="58.057" y1="290.102" x2="86.653" y2="290.861" gradientUnits="userSpaceOnUse"><stop stop-color="#313131"></stop><stop offset="1" stop-color="#626262"></stop></linearGradient><linearGradient id="hero-left_svg__Z" x1="97.03" y1="304.779" x2="80.835" y2="317.938" gradientUnits="userSpaceOnUse"><stop stop-color="#626262"></stop><stop offset="1" stop-color="#313131"></stop></linearGradient><linearGradient id="hero-left_svg__aa" x1="134.99" y1="286.051" x2="149.162" y2="295.921" gradientUnits="userSpaceOnUse"><stop stop-color="#626262"></stop><stop offset="1" stop-color="#A8A9A8"></stop></linearGradient><linearGradient id="hero-left_svg__ab" x1="116.262" y1="295.163" x2="130.433" y2="306.044" gradientUnits="userSpaceOnUse"><stop stop-color="#626262"></stop><stop offset="1" stop-color="#A8A9A8"></stop></linearGradient><linearGradient id="hero-left_svg__ac" x1="97.031" y1="305.284" x2="111.203" y2="316.418" gradientUnits="userSpaceOnUse"><stop stop-color="#626262"></stop><stop offset="1" stop-color="#A8A9A8"></stop></linearGradient><linearGradient id="hero-left_svg__ad" x1="119.299" y1="280.483" x2="149.722" y2="279.102" gradientUnits="userSpaceOnUse"><stop stop-color="#313131"></stop><stop offset="1" stop-color="#626262"></stop></linearGradient><linearGradient id="hero-left_svg__ae" x1="103.863" y1="289.088" x2="129.169" y2="287.822" gradientUnits="userSpaceOnUse"><stop stop-color="#313131"></stop><stop offset="1" stop-color="#626262"></stop></linearGradient><linearGradient id="hero-left_svg__af" x1="81.341" y1="298.957" x2="110.443" y2="298.198" gradientUnits="userSpaceOnUse"><stop stop-color="#313131"></stop><stop offset="1" stop-color="#626262"></stop></linearGradient><linearGradient id="hero-left_svg__ag" x1="37.85" y1="263.999" x2="145.303" y2="263.999" gradientUnits="userSpaceOnUse"><stop stop-color="#A6A6A6"></stop><stop offset="1" stop-color="gray"></stop></linearGradient><linearGradient id="hero-left_svg__ah" x1="52.49" y1="264.034" x2="36.294" y2="276.181" gradientUnits="userSpaceOnUse"><stop stop-color="#626262"></stop><stop offset="1" stop-color="#313131"></stop></linearGradient><linearGradient id="hero-left_svg__ai" x1="52.491" y1="264.795" x2="65.397" y2="275.677" gradientUnits="userSpaceOnUse"><stop stop-color="#626262"></stop><stop offset="1" stop-color="#A8A9A8"></stop></linearGradient><linearGradient id="hero-left_svg__aj" x1="35.37" y1="242.221" x2="148.808" y2="242.221" gradientUnits="userSpaceOnUse"><stop stop-color="#E5E5E5"></stop><stop offset="1" stop-color="#CCC"></stop></linearGradient><linearGradient id="hero-left_svg__ak" x1="35.371" y1="250.131" x2="148.809" y2="250.131" gradientUnits="userSpaceOnUse"><stop stop-color="#E5E5E5"></stop><stop offset="1" stop-color="#CCC"></stop></linearGradient><linearGradient id="hero-left_svg__al" x1="35.387" y1="258.042" x2="64.384" y2="259.227" gradientUnits="userSpaceOnUse"><stop stop-color="#313131"></stop><stop offset="1" stop-color="#626262"></stop></linearGradient><linearGradient id="hero-left_svg__am" x1="35.377" y1="248.677" x2="148.815" y2="248.677" gradientUnits="userSpaceOnUse"><stop stop-color="#E5E5E5"></stop><stop offset="1" stop-color="#CCC"></stop></linearGradient><linearGradient id="hero-left_svg__an" x1="35.375" y1="257.019" x2="148.814" y2="257.019" gradientUnits="userSpaceOnUse"><stop stop-color="#E5E5E5"></stop><stop offset="1" stop-color="#CCC"></stop></linearGradient><linearGradient id="hero-left_svg__ao" x1="81.589" y1="291.367" x2="95.761" y2="280.232" gradientUnits="userSpaceOnUse"><stop stop-color="#313131"></stop><stop offset="1" stop-color="#626262"></stop></linearGradient><linearGradient id="hero-left_svg__ap" x1="97.031" y1="278.206" x2="111.203" y2="291.365" gradientUnits="userSpaceOnUse"><stop stop-color="#626262"></stop><stop offset="1" stop-color="#A8A9A8"></stop></linearGradient><linearGradient id="hero-left_svg__aq" x1="134.99" y1="261.758" x2="149.161" y2="270.868" gradientUnits="userSpaceOnUse"><stop stop-color="#626262"></stop><stop offset="1" stop-color="#A8A9A8"></stop></linearGradient><linearGradient id="hero-left_svg__ar" x1="81.083" y1="273.399" x2="110.438" y2="272.893" gradientUnits="userSpaceOnUse"><stop stop-color="#313131"></stop><stop offset="1" stop-color="#626262"></stop></linearGradient><linearGradient id="hero-left_svg__as" x1="122.584" y1="256.19" x2="148.802" y2="255.099" gradientUnits="userSpaceOnUse"><stop stop-color="#313131"></stop><stop offset="1" stop-color="#626262"></stop></linearGradient><linearGradient id="hero-left_svg__at" x1="37.843" y1="248.944" x2="145.657" y2="248.944" gradientUnits="userSpaceOnUse"><stop stop-color="#A6A6A6"></stop><stop offset="1" stop-color="gray"></stop></linearGradient><linearGradient id="hero-left_svg__au" x1="37.843" y1="255.836" x2="145.656" y2="255.836" gradientUnits="userSpaceOnUse"><stop stop-color="#A6A6A6"></stop><stop offset="1" stop-color="gray"></stop></linearGradient><linearGradient id="hero-left_svg__av" x1="37.84" y1="247.509" x2="145.659" y2="247.509" gradientUnits="userSpaceOnUse"><stop stop-color="#A6A6A6"></stop><stop offset="1" stop-color="gray"></stop></linearGradient><linearGradient id="hero-left_svg__aw" x1="51.988" y1="240.247" x2="35.286" y2="251.129" gradientUnits="userSpaceOnUse"><stop stop-color="#626262"></stop><stop offset="1" stop-color="#313131"></stop></linearGradient><linearGradient id="hero-left_svg__ax" x1="91.721" y1="224.811" x2="103.868" y2="236.452" gradientUnits="userSpaceOnUse"><stop stop-color="#626262"></stop><stop offset="1" stop-color="#A8A9A8"></stop></linearGradient><linearGradient id="hero-left_svg__ay" x1="71.729" y1="232.401" x2="84.635" y2="243.536" gradientUnits="userSpaceOnUse"><stop stop-color="#626262"></stop><stop offset="1" stop-color="#A8A9A8"></stop></linearGradient><linearGradient id="hero-left_svg__az" x1="53.508" y1="239.74" x2="64.389" y2="252.646" gradientUnits="userSpaceOnUse"><stop stop-color="#626262"></stop><stop offset="1" stop-color="#A8A9A8"></stop></linearGradient><linearGradient id="hero-left_svg__aA" x1="84.882" y1="226.329" x2="56.792" y2="226.329" gradientUnits="userSpaceOnUse"><stop stop-color="#A8A9A8"></stop><stop offset="1" stop-color="#313131"></stop></linearGradient><linearGradient id="hero-left_svg__aB" x1="65.652" y1="233.414" x2="36.044" y2="233.414" gradientUnits="userSpaceOnUse"><stop stop-color="#A8A9A8"></stop><stop offset="1" stop-color="#313131"></stop></linearGradient><linearGradient id="hero-left_svg__aC" x1="104.62" y1="218.737" x2="74.759" y2="218.737" gradientUnits="userSpaceOnUse"><stop stop-color="#A8A9A8"></stop><stop offset="1" stop-color="#313131"></stop></linearGradient><linearGradient id="hero-left_svg__aD" x1="74.002" y1="245.814" x2="58.059" y2="258.72" gradientUnits="userSpaceOnUse"><stop stop-color="#626262"></stop><stop offset="1" stop-color="#313131"></stop></linearGradient><linearGradient id="hero-left_svg__aE" x1="114.235" y1="231.896" x2="125.876" y2="238.729" gradientUnits="userSpaceOnUse"><stop stop-color="#626262"></stop><stop offset="1" stop-color="#A8A9A8"></stop></linearGradient><linearGradient id="hero-left_svg__aF" x1="76.024" y1="246.32" x2="89.689" y2="259.226" gradientUnits="userSpaceOnUse"><stop stop-color="#626262"></stop><stop offset="1" stop-color="#A8A9A8"></stop></linearGradient><linearGradient id="hero-left_svg__aG" x1="87.666" y1="239.74" x2="59.323" y2="240.499" gradientUnits="userSpaceOnUse"><stop stop-color="#A8A9A8"></stop><stop offset="1" stop-color="#313131"></stop></linearGradient><linearGradient id="hero-left_svg__aH" x1="126.381" y1="224.557" x2="97.532" y2="225.316" gradientUnits="userSpaceOnUse"><stop stop-color="#A8A9A8"></stop><stop offset="1" stop-color="#313131"></stop></linearGradient><linearGradient id="hero-left_svg__aI" x1="80.328" y1="267.325" x2="97.03" y2="253.406" gradientUnits="userSpaceOnUse"><stop stop-color="#313131"></stop><stop offset="1" stop-color="#626262"></stop></linearGradient><linearGradient id="hero-left_svg__aJ" x1="116.264" y1="245.563" x2="130.435" y2="256.697" gradientUnits="userSpaceOnUse"><stop stop-color="#626262"></stop><stop offset="1" stop-color="#A8A9A8"></stop></linearGradient><linearGradient id="hero-left_svg__aK" x1="134.99" y1="235.186" x2="149.162" y2="247.08" gradientUnits="userSpaceOnUse"><stop stop-color="#626262"></stop><stop offset="1" stop-color="#A8A9A8"></stop></linearGradient><linearGradient id="hero-left_svg__aL" x1="97.032" y1="253.154" x2="111.203" y2="265.807" gradientUnits="userSpaceOnUse"><stop stop-color="#626262"></stop><stop offset="1" stop-color="#A8A9A8"></stop></linearGradient><linearGradient id="hero-left_svg__aM" x1="147.391" y1="230.125" x2="119.301" y2="230.885" gradientUnits="userSpaceOnUse"><stop stop-color="#A8A9A8"></stop><stop offset="1" stop-color="#313131"></stop></linearGradient><linearGradient id="hero-left_svg__aN" x1="128.914" y1="238.983" x2="100.824" y2="238.983" gradientUnits="userSpaceOnUse"><stop stop-color="#A8A9A8"></stop><stop offset="1" stop-color="#313131"></stop></linearGradient><linearGradient id="hero-left_svg__aO" x1="111.202" y1="247.081" x2="81.594" y2="247.081" gradientUnits="userSpaceOnUse"><stop stop-color="#A8A9A8"></stop><stop offset="1" stop-color="#313131"></stop></linearGradient><linearGradient id="hero-left_svg__aP" x1="93.996" y1="218.737" x2="107.914" y2="232.15" gradientUnits="userSpaceOnUse"><stop stop-color="#EAAD18"></stop><stop offset="1" stop-color="#FDB913"></stop></linearGradient><linearGradient id="hero-left_svg__aQ" x1="92.986" y1="218.739" x2="77.296" y2="232.91" gradientUnits="userSpaceOnUse"><stop stop-color="#EAAD18"></stop><stop offset="1" stop-color="#DEA517"></stop></linearGradient><linearGradient id="hero-left_svg__aR" x1="77.059" y1="213.355" x2="108.117" y2="213.355" gradientUnits="userSpaceOnUse"><stop stop-color="#EAAD18"></stop><stop offset="1" stop-color="#FDB913"></stop></linearGradient><linearGradient id="hero-left_svg__aS" x1="60.32" y1="275.746" x2="74.239" y2="289.159" gradientUnits="userSpaceOnUse"><stop stop-color="#EAAD18"></stop><stop offset="1" stop-color="#FDB913"></stop></linearGradient><linearGradient id="hero-left_svg__aT" x1="59.31" y1="275.747" x2="43.62" y2="289.918" gradientUnits="userSpaceOnUse"><stop stop-color="#EAAD18"></stop><stop offset="1" stop-color="#DEA517"></stop></linearGradient><linearGradient id="hero-left_svg__aU" x1="43.383" y1="270.364" x2="74.441" y2="270.364" gradientUnits="userSpaceOnUse"><stop stop-color="#EAAD18"></stop><stop offset="1" stop-color="#FDB913"></stop></linearGradient><linearGradient id="hero-left_svg__aV" x1="133.019" y1="273.185" x2="146.938" y2="286.598" gradientUnits="userSpaceOnUse"><stop stop-color="#EAAD18"></stop><stop offset="1" stop-color="#FDB913"></stop></linearGradient><linearGradient id="hero-left_svg__aW" x1="132.009" y1="273.186" x2="116.319" y2="287.357" gradientUnits="userSpaceOnUse"><stop stop-color="#EAAD18"></stop><stop offset="1" stop-color="#DEA517"></stop></linearGradient><linearGradient id="hero-left_svg__aX" x1="116.082" y1="267.803" x2="147.14" y2="267.803" gradientUnits="userSpaceOnUse"><stop stop-color="#EAAD18"></stop><stop offset="1" stop-color="#FDB913"></stop></linearGradient><linearGradient id="hero-left_svg__aY" x1="2.608" y1="220.783" x2="177.611" y2="216.437" gradientUnits="userSpaceOnUse"><stop stop-color="#313131"></stop><stop offset="0.469" stop-color="#626262"></stop><stop offset="1" stop-color="#A8A9A8"></stop></linearGradient><linearGradient id="hero-left_svg__aZ" x1="97.931" y1="252.656" x2="179.638" y2="321.323" gradientUnits="userSpaceOnUse"><stop stop-color="#A8A9A8"></stop><stop offset="0.51" stop-color="#626262"></stop><stop offset="1" stop-color="#313131"></stop></linearGradient><clipPath id="hero-left_svg__a"><path fill="#fff" d="M0 0h308v540H0z"></path></clipPath></defs></svg>