<svg width="106" height="80" viewBox="0 0 106 80" fill="none" xmlns="http://www.w3.org/2000/svg"><g clip-path="url(#newsletter_svg__a)"><path d="M76.453 0 43.566 19.016 35.752 54.98l62.572 6.71 7.608-40.05L76.453 0Z" fill="#FDB913"></path><path d="M78.389 17.59c.704-5.149 6.064-9.13 12.076-8.884 6.13.25 10.588 4.783 9.849 10.115L97.392 39.89l-21.785-1.956L78.39 17.59Z" fill="#DFE0DF"></path><path d="m105.932 21.64-7.608 40.05-62.572-6.71 7.814-35.963L65.95 40.353l39.982-18.712Z" fill="#FDB913"></path><path d="m35.752 54.98 7.814-35.963 17.404 16.59L35.752 54.98ZM105.932 21.64l-7.608 40.05-23.646-25.444 31.254-14.605Z" fill="#FDD46E"></path><path d="m17.035 62.563 3.045-23.094 2.958-22.44c.802-6.083 6.611-10.808 13.107-10.543l53.964 2.206v.007c-5.866-.077-11.03 3.845-11.72 8.89l-.41 2.997-2.132 15.6-.24 1.749-.966 7.072-3.354 24.532c-.038.275-.089.544-.146.811l.034.005-.265 1.937c-.696 5.094-5.87 8.47-11.459 7.56l-2.975-.484-48.982-7.972 9.541-8.833Z" fill="#F4F4F4"></path><path d="m.07 61.865.223-1.712 16.742 2.41 34.01 4.895-.252 1.873c-.665 4.926 3.17 9.628 8.657 10.521L7.494 71.396v-.007c-.09-.012-.18-.022-.271-.037-4.568-.744-7.74-4.984-7.153-9.487ZM41.912 16.547l17.149.993-.515 3.813-17.128-1.103.494-3.703Z" fill="#DFE0DF"></path><path d="M31.798 25.78 67.31 28.45l-.263 1.934-35.49-2.785.242-1.82ZM30.96 32.087l35.437 3.065-.262 1.932-35.416-3.179.241-1.818ZM29.327 46.928l15.192 1.647-.261 1.926-15.18-1.717.249-1.856ZM28.66 51.344l11.693 1.402-.261 1.925L28.41 53.21l.25-1.866ZM30.124 38.388l35.364 3.458-.262 1.93-35.343-3.572.24-1.816Z" fill="#A8A9A8"></path></g><defs><clipPath id="newsletter_svg__a"><path fill="#fff" d="M0 0h105.932v80H0z"></path></clipPath></defs></svg>