<svg width="174" height="40" viewBox="0 0 522 120" fill="none" xmlns="http://www.w3.org/2000/svg" class="Header_Logo__H4Lge" alt="Bware Labs Logo"><g clip-path="url(#bwarelabs-logo_svg__a)"><path fill-rule="evenodd" clip-rule="evenodd" d="M519.332 40.645V36.5h-19.579a6.61 6.61 0 0 0-4.726 1.988l-2.943 3.01a6.61 6.61 0 0 0-1.885 4.622v7.011c0 1.498.506 3.414 1.339 5.034.811 1.577 2.083 3.16 3.791 3.552l.098.023 19.644.233c.102.046.267.161.476.425.249.315.491.754.705 1.268.433 1.04.669 2.193.669 2.831v7.144c0 .681-.282 1.332-.779 1.798l-3.463 3.25a2.466 2.466 0 0 1-1.687.667H491.81V83.5h19.182c1.68 0 3.297-.64 4.523-1.79l3.463-3.248a6.61 6.61 0 0 0 2.087-4.82v-7.145c0-1.498-.505-3.414-1.338-5.034-.811-1.576-2.083-3.16-3.792-3.552l-.098-.022-19.643-.233c-.102-.046-.267-.162-.476-.426-.249-.315-.492-.754-.705-1.267-.433-1.041-.669-2.194-.669-2.832V46.12c0-.645.252-1.263.703-1.724l2.943-3.01a2.468 2.468 0 0 1 1.763-.742h19.579ZM479.323 59.46c.084-.078.166-.156.243-.233l1.39-1.383c.879-.875 1.484-1.644 1.838-2.586.347-.926.417-1.928.417-3.182V46.62c0-1.254-.07-2.256-.417-3.182-.354-.942-.959-1.711-1.838-2.586l-2.121-2.11c-.865-.861-1.679-1.456-2.713-1.81-1.005-.344-2.142-.433-3.59-.433h-17.905c-.539 0-1.154.106-1.604.575-.443.462-.523 1.065-.523 1.543v42.764c0 .478.08 1.081.523 1.542.45.47 1.065.576 1.604.576h19.148c1.447 0 2.584-.09 3.589-.433 1.034-.354 1.849-.949 2.714-1.81l2.121-2.11c.879-.875 1.484-1.644 1.838-2.586.348-.926.418-1.928.418-3.182V68.07c0-1.254-.07-2.256-.418-3.182-.354-.942-.959-1.71-1.838-2.586l-2.342-2.322-.002-.001-.068-.068a16.726 16.726 0 0 0-.464-.452Zm-4.882-18.786c.426.141.778.37 1.216.806l1.974 1.964c.662.659.914.975 1.052 1.307.139.335.2.781.2 1.798v5.673c0 1.015-.061 1.462-.2 1.797-.138.332-.39.65-1.052 1.308l-1.168 1.163c-.583.58-.921.792-1.21.895-.307.11-.66.135-1.406.135h-17.025V40.45h15.563c.993 0 1.601.073 2.056.224Zm5.485 25.458c-.138-.331-.39-.649-1.052-1.307l-1.903-1.89c-.705-.704-1.102-1.054-1.493-1.258-.35-.183-.763-.282-1.559-.282h-17.097v18.161h16.807c.993 0 1.6-.072 2.055-.223.424-.14.777-.37 1.216-.807l1.974-1.964c.662-.659.914-.976 1.052-1.308.139-.335.201-.782.201-1.798V67.93c0-1.016-.062-1.462-.201-1.798ZM434.892 39.866h-.001c-.742-1.322-1.55-2.216-2.612-2.745-1.038-.516-2.201-.621-3.499-.621h-2.969c-1.298 0-2.46.105-3.499.621-1.062.529-1.87 1.423-2.612 2.744l-7.314 13.043-.003.005c-.815 1.474-1.332 2.623-1.632 3.898-.297 1.264-.368 2.597-.368 4.413V83.5h4.211V70.027h25.409V83.5h4.211V61.224c0-1.816-.072-3.15-.37-4.415-.3-1.274-.818-2.424-1.633-3.896l-7.319-13.047ZM440 61.227v4.745h-25.409v-4.745c0-2.914.342-4.468 1.47-6.448l7.169-12.757.001-.002c.438-.771.741-1.065 1.039-1.218.324-.167.792-.247 1.758-.247h2.535c.967 0 1.434.08 1.758.247.298.153.601.447 1.039 1.218l.001.002 7.166 12.752.003.005c1.129 1.98 1.47 3.534 1.47 6.448ZM378.752 79.482V36.5h-4.322v44.882c0 .478.08 1.08.521 1.542.45.47 1.065.576 1.602.576h24.856v-4.018h-22.657Z" fill="#fff"></path><path d="M332.605 63.642h19.43v-7.43h-19.43V43.93h23.39V36.5h-29.564c-1.677 0-2.361.684-2.361 2.35v42.3c0 1.67.687 2.35 2.361 2.35h30.095v-7.43h-23.924V63.643h.003ZM309.973 65.84l2.133-2.123c2.211-2.196 2.742-3.259 2.742-6.975v-8.718c0-3.716-.534-4.776-2.742-6.975l-2.133-2.122c-1.98-1.97-3.657-2.427-7.085-2.427h-22.324c-1.677 0-2.361.684-2.361 2.349V83.5h8.534V68.263h13.334l6.17 15.237h9.066l-6.858-16.374c.534-.38.99-.755 1.524-1.286Zm-3.582-9.25c0 .606-.153.985-.686 1.516l-2.058 2.048c-.534.531-1.068.683-1.98.683h-14.933V43.932h14.858c1.068 0 1.599.227 2.286.91l1.602 1.591c.686.684.914 1.137.914 2.048v8.109h-.003ZM259.083 40.63c-2.038-3.228-3.019-4.13-7.395-4.13h-4.073c-4.376 0-5.356.902-7.394 4.13l-7.395 11.862c-1.96 3.077-2.264 5.48-2.264 9.01V83.5h8.375V71.564h21.429V83.5h8.375V61.502c0-3.53-.303-5.93-2.264-9.01l-7.394-11.862Zm1.28 23.573h-21.429v-2.852c0-2.253.378-3.53 1.358-5.105l6.866-11.262c.377-.6.603-.677 1.283-.677h2.415c.681 0 .907.077 1.284.677l6.865 11.262c.981 1.575 1.358 2.852 1.358 5.105v2.852ZM213.022 62.852c0 .751-.229 1.277-.681 1.878l-8.526 11.336-8.526-11.336c-.452-.6-.681-1.127-.681-1.878V36.5h-8.449v26.352c0 .751-.225 1.277-.68 1.878l-8.526 11.336-8.527-11.336c-.451-.6-.68-1.127-.68-1.878V36.5h-8.449v25.977c0 3.379.603 4.579 2.264 6.758l8.903 11.711c1.206 1.576 2.641 2.554 5.508 2.554h1.964c2.867 0 4.302-.975 5.508-2.554l6.943-9.084 6.943 9.084c1.206 1.576 2.641 2.554 5.508 2.554h1.963c2.867 0 4.302-.975 5.508-2.554l8.904-11.712c1.661-2.175 2.264-3.378 2.264-6.757V36.5h-8.449v26.352h-.006ZM144.86 59.093l.99-.985c2.211-2.2 2.82-3.487 2.82-6.824v-3.26c0-3.715-.534-4.775-2.745-6.975l-2.133-2.122c-1.98-1.97-3.429-2.427-6.63-2.427h-20.801c-1.677 0-2.361.684-2.361 2.35v42.3c0 1.67.687 2.35 2.361 2.35h22.247c3.201 0 4.65-.454 6.63-2.427l2.133-2.122c2.211-2.2 2.745-3.26 2.745-6.976v-3.564c0-3.716-.534-4.623-2.745-6.823l-2.511-2.495ZM122.538 43.78h13.028c.915 0 1.449.152 1.98.684l2.058 2.047c.534.532.687.91.687 1.517v4.17c0 .605-.153.984-.687 1.516l-1.905 1.895c-.534.532-1.068.684-1.98.684h-13.181V43.78Zm19.124 28.201c0 .606-.153.985-.687 1.517l-2.058 2.047c-.534.532-1.068.684-1.983.684h-14.399V63.337h14.552c.915 0 1.449.152 1.98.684l1.905 1.895c.534.531.687.91.687 1.516v4.55h.003Z" fill="#fff"></path><path d="m97.99 41.577.007-.007L50.134.422a1.743 1.743 0 0 0-2.273 0L0 41.57l.004.007v36.86h.003l47.855 41.141c.654.563 1.619.563 2.273 0L97.99 78.437H98v-36.86h-.01ZM54.405 10.412 89.1 40.24c.813.7.813 1.961 0 2.66L74.022 55.863a1.743 1.743 0 0 1-2.274 0l-20.226-17.39V11.743c0-1.497 1.75-2.304 2.883-1.33Zm-5.407-4.649.007.007h-.014l.007-.007Zm-2.376 5.852v26.732L26.248 55.863a1.742 1.742 0 0 1-2.273 0L8.897 42.9a1.755 1.755 0 0 1 0-2.66l34.842-29.955c1.133-.974 2.883-.166 2.883 1.33ZM7.786 48.265 19.89 58.67c.813.699.813 1.96 0 2.66L7.786 71.735c-1.132.974-2.883.167-2.883-1.33v-20.81c0-1.497 1.75-2.304 2.883-1.33Zm35.953 61.45L8.897 79.76a1.755 1.755 0 0 1 0-2.66l15.078-12.963a1.742 1.742 0 0 1 2.273 0l20.374 17.516v26.732c0 1.496-1.75 2.304-2.883 1.33ZM30.334 61.33a1.755 1.755 0 0 1 0-2.66L48.99 42.63l.007-.007.007.007 18.658 16.04c.813.699.813 1.961 0 2.66L48.998 77.377 30.334 61.33Zm21.188 46.928V81.525l20.226-17.388a1.742 1.742 0 0 1 2.273 0L89.1 77.1c.813.699.813 1.96 0 2.66l-34.695 29.828c-1.133.974-2.883.167-2.883-1.33Zm38.695-36.516L78.107 61.33a1.755 1.755 0 0 1 0-2.66l12.11-10.412c1.133-.974 2.883-.167 2.883 1.33v20.824c0 1.497-1.75 2.304-2.883 1.33Z" fill="#FDB913"></path></g><defs><clipPath id="bwarelabs-logo_svg__a"><path fill="#fff" d="M0 0h522v120H0z"></path></clipPath></defs></svg>