<svg width="200" height="170" viewBox="0 0 200 171" fill="none" xmlns="http://www.w3.org/2000/svg" class="index_PartnersIcon__pLsVo"><g clip-path="url(#partners_svg__a)"><path d="M73.219 67.287c2.958-2.9 9.596-3.766 14.5-1.804 3.943 1.576 5.459 4.995 3.308 7.453-1.22 1.394-3.25 2.37-5.575 2.852-1.098.228-1.223 1.098-.213 1.443l19.894 6.812L116.94 72.47c.764-.75 2.724-.637 3.199.192.766 1.34 2.405 2.524 4.778 3.239 4.447 1.338 10.004.473 12.656-1.965 2.912-2.677 1.391-6.209-3.313-7.82-2.111-.722-4.499-.932-6.728-.694-1.487.159-2.609-.778-1.843-1.53l11.807-11.574-51.11-17.5c-2.234-.764-5.107-.342-6.418.943l-29.99 29.399 19.922 6.82c.995.341 2.245-.133 2.058-.791-.37-1.302.016-2.68 1.261-3.901Z" fill="#DFE0DF"></path><path d="M127.531 65.42c2.23-.238 4.617-.028 6.729.695a10.61 10.61 0 0 1 2.245 1.058l.991-.972V52.316l-11.808 11.575c-.766.751.356 1.688 1.843 1.53Z" fill="#9C9C9C"></path><path d="M138.98 71.612c-.16.8-.613 1.594-1.407 2.323-2.652 2.439-8.209 3.304-12.656 1.965-2.372-.714-4.012-1.898-4.778-3.239-.475-.829-2.435-.94-3.199-.192l-11.807 11.575-19.894-6.812c-1.01-.346-.885-1.215.213-1.443 2.325-.483 4.356-1.458 5.575-2.852 2.151-2.458.635-5.877-3.308-7.454-4.904-1.961-11.542-1.095-14.5 1.804-1.245 1.221-1.63 2.6-1.26 3.901.186.659-1.064 1.133-2.06.792l-19.92-6.82v13.884l19.92 6.821c.996.341 2.246-.133 2.06-.792-.37-1.301.014-2.68 1.26-3.9 2.364-2.318 7.077-3.332 11.379-2.646v11.711c-.127.32.069.683.64.878l19.895 6.812 11.807-11.574c.764-.749 2.724-.637 3.199.192.766 1.34 2.406 2.525 4.778 3.24 4.447 1.338 10.004.473 12.656-1.966 1.222-1.123 1.654-2.395 1.407-3.614V71.612Z" fill="#F4F4F4"></path><path d="M118.72 85.867V71.982c-.665-.054-1.382.098-1.778.486l-11.807 11.575v13.885l11.807-11.575c.396-.388 1.113-.54 1.778-.486Z" fill="#9C9C9C"></path><path d="M117.367 86.078c-.025.011-.055.018-.08.03.025-.012.055-.019.08-.03ZM117.765 85.939l-.04.007c.012-.004.028-.004.04-.007Z" fill="#F4F4F4"></path><path d="M85.239 77.232c-1.01-.346-.886-1.215.213-1.444 2.325-.482 4.355-1.457 5.575-2.851 2.151-2.458.635-5.877-3.308-7.454-4.904-1.961-11.542-1.095-14.5 1.804-1.245 1.221-1.63 2.6-1.26 3.901.186.659-1.064 1.133-2.06.792l-19.92-6.82v13.884l19.92 6.821c.996.34 2.246-.133 2.06-.792-.37-1.301.014-2.68 1.26-3.9 2.364-2.318 7.077-3.331 11.379-2.646V90.24c-.127.32.069.682.64.877l19.895 6.812V84.043l-19.894-6.811ZM138.978 84.206V71.611c-.16.8-.614 1.594-1.407 2.323-2.652 2.44-8.21 3.304-12.656 1.965-2.373-.714-4.012-1.898-4.779-3.238-.346-.607-1.486-.825-2.373-.608.302-.073.632-.097.953-.07v13.885c.618.05 1.191.279 1.42.677.767 1.341 2.406 2.525 4.779 3.239 4.446 1.339 10.004.474 12.656-1.964 1.221-1.124 1.653-2.396 1.407-3.614Z" fill="#A8A9A8"></path><path d="M117.285 72.224ZM117.723 72.06ZM70.291 72.071c.023.003.045.002.067.004-.022-.002-.045 0-.067-.004ZM68.453 71.485l-18.475-6.326 18.475 6.326ZM70.713 72.088c-.009 0-.017.002-.025.003.008-.001.016-.003.025-.003ZM69.9 85.864l-1.447-.495 1.446.495ZM70.356 85.959ZM71.404 85.825v-.004c-.03.016-.04.021 0 .004ZM84.571 90.334a.478.478 0 0 0 0 .182v-.182Z" fill="#F4F4F4"></path><path d="M84.568 76.674c-.105-.357.2-.744.88-.886 2.325-.482 4.355-1.457 5.575-2.851 2.15-2.458.635-5.877-3.308-7.454-4.904-1.961-11.542-1.095-14.5 1.804-1.245 1.221-1.63 2.6-1.26 3.901.09.32-.16.592-.552.753v13.881c.119-.062.661-.36.551-.749-.37-1.301.016-2.68 1.26-3.9 2.36-2.314 7.06-3.327 11.354-2.65v-1.849Z" fill="#A8A9A8"></path><g style="mix-blend-mode:color-dodge" fill="#F4F4F4"><path d="M125.638 64.258c.018-.019.031-.039.05-.058l11.807-11.575-.699-.24-11.108 10.89c-.334.328-.309.691-.05.983ZM137.573 73.317c-2.652 2.439-8.209 3.304-12.656 1.965-2.372-.714-4.012-1.898-4.778-3.239-.474-.829-2.435-.94-3.199-.192l-11.807 11.574-19.895-6.811a1.32 1.32 0 0 1-.429-.24c-.444.357-.324.908.43 1.166l19.894 6.81 11.807-11.573c.764-.75 2.725-.637 3.199.192.766 1.34 2.406 2.525 4.778 3.239 4.447 1.338 10.004.474 12.656-1.965 1.159-1.065 1.604-2.265 1.439-3.426-.125.86-.587 1.717-1.439 2.5ZM71.857 71.016c-.317.397-1.209.602-1.958.346l-19.22-6.58-.7.685 19.92 6.82c.996.341 2.246-.133 2.06-.79a3.57 3.57 0 0 1-.102-.481ZM91.973 70.322c.286-2.068-1.305-4.277-4.254-5.456-4.904-1.962-11.542-1.095-14.5 1.804-1.096 1.074-1.524 2.27-1.36 3.428.115-.858.555-1.713 1.36-2.502 2.958-2.9 9.596-3.766 14.5-1.805 2.512 1.005 4.032 2.756 4.254 4.53Z"></path></g><path d="M52.632 109.584c-4.145-2.393-3.986-6.326.496-8.568 3.603-1.803 9.706-1.779 13.308.051 2.041 1.037 3.185 2.421 3.43 3.845.115.672 1.544.964 2.369.488l16.26-9.388-16.55-9.554c-1.07-.618-.406-1.686 1.1-1.74 2.436-.086 4.82-.702 6.594-1.846 3.326-2.144 3.225-5.473-.221-7.578-3.784-2.31-10.078-2.361-13.922-.142-1.726.997-2.658 2.278-2.8 3.585-.095.872-1.939 1.26-3.013.64l-16.549-9.554L1.364 93.94c-1.827 1.054-1.817 2.768.02 3.83l42.033 24.267 16.281-9.4c.814-.469.322-1.289-.828-1.353-2.273-.125-4.492-.692-6.238-1.7Z" fill="#DFE0DF"></path><path d="M79.638 82.872c-1.775 1.145-4.159 1.76-6.594 1.846-1.506.054-2.17 1.122-1.1 1.74l10.069 5.813V79.723c-.194 1.14-.978 2.249-2.375 3.149ZM72.235 105.4c-.825.476-2.254.185-2.369-.488-.245-1.423-1.388-2.807-3.43-3.845-3.601-1.83-9.705-1.854-13.308-.051-4.481 2.242-4.64 6.175-.495 8.569 1.745 1.007 3.964 1.574 6.238 1.699.705.039 1.16.363 1.22.717l.003-.001v.011c.002.012 0 .024 0 .036v1.526c2.322.046 4.619.504 6.342 1.38 2.042 1.036 3.185 2.42 3.43 3.844.115.672 1.544.964 2.369.488l15.573-8.992.686-.144V96.012L72.235 105.4ZM1.384 97.77C.48 97.247.022 96.57.003 95.887v13.592l.018-.008c-.128.778.327 1.584 1.363 2.182l42.033 24.268v-13.885L1.384 97.769Z" fill="#A8A9A8"></path><path d="m60.095 112-.004.001c0 .004.004.007.004.011V112Z" fill="#F4F4F4"></path><path d="m60.095 112-.004.001c0 .004.004.007.004.011V112ZM59.697 112.637l-16.281 9.4v13.885l16.281-9.4c.254-.146.368-.327.387-.509h.009V112.047c.014.208-.104.421-.396.59Z" fill="#F4F4F4"></path><path d="m59.697 112.637-16.281 9.4v13.885l16.281-9.4c.254-.146.368-.327.387-.509h.009V112.047c.014.208-.104.421-.396.59Z" fill="#9C9C9C"></path><g opacity="0.2" fill="#F4F4F4"><path d="M60.095 146.559h-.004c0 .004.004.008.004.011v-.011Z"></path><path d="M60.095 146.559h-.004c0 .004.004.008.004.011v-.011Z"></path></g><g style="mix-blend-mode:color-dodge" fill="#F4F4F4"><path d="m59.6 112.075-16.184 9.345L1.382 97.152c-.647-.374-1.062-.83-1.255-1.308-.358.883.058 1.851 1.255 2.542l42.034 24.268 16.28-9.4c.61-.351.487-.899-.095-1.179ZM79.64 82.255c-1.775 1.145-4.159 1.76-6.594 1.847-1.419.05-2.09 1-1.267 1.627.282-.218.718-.374 1.267-.394 2.435-.086 4.82-.7 6.594-1.845 1.882-1.215 2.665-2.807 2.366-4.343-.206 1.124-.987 2.219-2.366 3.108ZM72.233 104.782c-.825.476-2.254.185-2.37-.488-.244-1.422-1.388-2.806-3.43-3.844-3.6-1.83-9.704-1.854-13.307-.052-2.618 1.311-3.75 3.197-3.421 5.017.26-1.407 1.394-2.768 3.421-3.782 3.603-1.803 9.707-1.779 13.308.052 2.041 1.036 3.185 2.42 3.43 3.844.115.672 1.544.964 2.369.488l16.26-9.388-1.07-.617-15.19 8.77Z"></path></g><path d="M147.343 80.825c4.145 2.393 3.986 6.326-.496 8.568-3.603 1.803-9.706 1.778-13.307-.051-2.043-1.038-3.186-2.422-3.431-3.845-.115-.672-1.544-.963-2.368-.487l-16.26 9.387 16.548 9.555c1.071.617.407 1.685-1.1 1.739-2.435.087-4.819.701-6.593 1.846-3.326 2.145-3.225 5.473.221 7.578 3.784 2.311 10.078 2.361 13.922.142 1.726-.997 2.658-2.278 2.8-3.585.094-.872 1.939-1.26 3.013-.64l16.549 9.554 41.771-24.117c1.825-1.053 1.817-2.768-.021-3.829l-42.034-24.268-16.28 9.4c-.813.47-.322 1.29.828 1.353 2.273.125 4.492.692 6.238 1.7Z" fill="#FDB913"></path><path d="M147.343 80.825c4.145 2.393 3.986 6.326-.496 8.568-3.603 1.803-9.706 1.778-13.307-.051-2.043-1.038-3.186-2.422-3.431-3.845-.115-.672-1.544-.963-2.368-.487l-16.26 9.387 16.548 9.555c1.071.617.407 1.685-1.1 1.739-2.435.087-4.819.701-6.593 1.846-3.326 2.145-3.225 5.473.221 7.578 3.784 2.311 10.078 2.361 13.922.142 1.726-.997 2.658-2.278 2.8-3.585.094-.872 1.939-1.26 3.013-.64l16.549 9.554 41.771-24.117c1.825-1.053 1.817-2.768-.021-3.829l-42.034-24.268-16.28 9.4c-.813.47-.322 1.29.828 1.353 2.273.125 4.492.692 6.238 1.7Z" fill="#FDD46E"></path><path d="M146.849 89.392c4.482-2.242 4.641-6.175.495-8.568-1.745-1.008-3.964-1.575-6.237-1.7-.736-.04-1.196-.39-1.224-.76l-.024.003V90.72c2.537.053 5.105-.384 6.99-1.328Z" fill="#FDB913"></path><path d="m199.969 108.378.03-.004V94.489l-.029.01c.029.712-.42 1.428-1.359 1.97l-41.77 24.116v13.885l41.77-24.117c.941-.542 1.391-1.261 1.358-1.975Z" fill="#EAAD18"></path><path d="m199.969 108.378.03-.004V94.489l-.029.01c.029.712-.42 1.428-1.359 1.97l-41.77 24.116v13.885l41.77-24.117c.941-.542 1.391-1.261 1.358-1.975Z" fill="#EAAD18"></path><path d="M120.336 107.536c1.774-1.144 4.158-1.759 6.594-1.846 1.506-.054 2.17-1.121 1.099-1.739l-16.548-9.554v13.884l6.444 3.72.072-.019c-.355-1.568.415-3.205 2.339-4.446ZM140.292 111.031c-.529-.306-1.246-.365-1.848-.243v13.884c.602-.121 1.319-.062 1.848.244l16.55 9.555v-13.885l-16.55-9.555Z" fill="#FDB913"></path><path d="M137.279 111.671c-.142 1.307-1.075 2.589-2.801 3.586-3.844 2.219-10.138 2.169-13.922-.143-1.452-.886-2.302-1.991-2.56-3.132l-.072.02v12.854c-.123 1.485.754 2.996 2.632 4.143 3.784 2.311 10.078 2.362 13.922.143 1.726-.997 2.659-2.278 2.801-3.586.048-.442.545-.758 1.164-.884v-13.885c-.619.126-1.116.443-1.164.884Z" fill="#FDB913"></path><path d="M137.279 111.671c-.142 1.307-1.075 2.589-2.801 3.586-3.844 2.219-10.138 2.169-13.922-.143-1.452-.886-2.302-1.991-2.56-3.132l-.072.02v12.854c-.123 1.485.754 2.996 2.632 4.143 3.784 2.311 10.078 2.362 13.922.143 1.726-.997 2.659-2.278 2.801-3.586.048-.442.545-.758 1.164-.884v-13.885c-.619.126-1.116.443-1.164.884Z" fill="#EAAD18"></path><g style="mix-blend-mode:color-dodge" fill="#F4F4F4"><path d="M128.197 104.68c.491-.381.512-.954-.168-1.347l-15.479-8.936-1.069.616 16.548 9.555c.062.036.117.073.168.112ZM141.106 79.741c2.273.126 4.492.692 6.237 1.7 1.724.996 2.691 2.257 2.926 3.552.314-1.704-.655-3.476-2.926-4.786-1.745-1.008-3.964-1.575-6.237-1.7a1.936 1.936 0 0 1-.732-.174l-.096.055c-.814.47-.322 1.29.828 1.353Z"></path></g><path d="M140.292 110.414c-1.073-.62-2.917-.232-3.012.64-.142 1.308-1.074 2.589-2.8 3.585-3.844 2.219-10.138 2.17-13.922-.141-1.495-.914-2.359-2.058-2.588-3.236-.29 1.588.571 3.238 2.588 4.47 3.784 2.311 10.078 2.361 13.922.142 1.726-.997 2.658-2.278 2.8-3.585.095-.872 1.939-1.261 3.012-.641l16.434 9.487v-1.233l-16.434-9.488Z" fill="#F4F4F4" style="mix-blend-mode:color-dodge"></path><path d="M198.608 97.086c1.183-.683 1.59-1.642 1.235-2.522-.19.473-.599.92-1.235 1.288l-41.77 24.116-.116-.067v1.234l.116.067 41.77-24.116Z" fill="#F4F4F4" style="mix-blend-mode:color-dodge"></path><path d="M124.892 123.763c-3.242 2.795-9.957 3.44-14.66 1.32-3.781-1.705-4.956-5.166-2.563-7.549 1.357-1.35 3.482-2.256 5.851-2.661 1.12-.191 1.331-1.055.357-1.433l-19.191-7.458-12.943 11.16c-.837.722-2.784.545-3.175-.298-.632-1.363-2.152-2.599-4.45-3.39-4.308-1.484-9.944-.805-12.836 1.54-3.174 2.576-2.006 6.151 2.531 7.914 2.037.791 4.4 1.081 6.65.917 1.502-.11 2.53.863 1.69 1.587l-12.944 11.16 49.303 19.158c2.156.837 5.068.512 6.504-.727l32.876-28.346-19.217-7.467c-.96-.373-2.257.059-2.135.721.24 1.312-.282 2.675-1.648 3.852Z" fill="#DFE0DF"></path><path d="M115.016 155.004c-1.436 1.238-4.348 1.564-6.504.727l-49.303-19.159v13.885l49.303 19.159c2.156.837 5.068.512 6.504-.728l32.876-28.346v-13.885l-32.876 28.347Z" fill="#9C9C9C"></path><path d="M70.47 123.825c-2.25.164-4.613-.126-6.65-.917-2.576-1.001-4.062-2.586-4.288-4.241v13.064c-.137 1.165.36 2.335 1.427 3.338l11.2-9.657c.84-.725-.187-1.697-1.688-1.587ZM113.525 114.873c-2.37.405-4.494 1.311-5.85 2.662-2.393 2.381-1.22 5.844 2.561 7.548 1.291.582 2.735.948 4.216 1.127v-11.908c-.107.257-.417.485-.927.571Z" fill="#A8A9A8"></path><g style="mix-blend-mode:color-dodge" fill="#F4F4F4"><path d="M126.577 120.262a.447.447 0 0 0-.03.182c.009-.061.024-.121.03-.182ZM107.669 116.918c-1.024 1.019-1.39 2.236-1.183 3.429.132-.775.512-1.528 1.183-2.196 1.357-1.35 3.481-2.256 5.851-2.66 1.074-.184 1.299-.98.461-1.38-.133.061-.28.115-.461.145-2.37.404-4.494 1.311-5.851 2.662ZM63.813 123.525c2.037.792 4.4 1.08 6.65.916.689-.049 1.275.128 1.63.405l.06-.052c.839-.724-.188-1.696-1.69-1.587-2.25.164-4.613-.125-6.65-.916-2.492-.969-3.96-2.485-4.258-4.08-.397 2.018 1.127 4.097 4.258 5.314ZM115.016 154.386c-1.436 1.239-4.348 1.565-6.504.727l-48.316-18.774-.987.85 49.303 19.158c2.156.838 5.068.512 6.504-.727l32.876-28.345-.988-.384-31.888 27.495Z"></path></g><path d="M160.376 47.35a6.688 6.688 0 0 1-1.775-.254.308.308 0 0 1-.202-.18l-1.176-2.878a7.735 7.735 0 0 1-.918-.45 9.38 9.38 0 0 1-.787-.514l-1.04 1.344a.308.308 0 0 1-.447.044 18.5 18.5 0 0 1-2.216-2.335.306.306 0 0 1-.059-.264l.512-2.161a16.32 16.32 0 0 1-1.304-2.25l-2.143-.648a.307.307 0 0 1-.197-.182 18.259 18.259 0 0 1-.92-3.074.309.309 0 0 1 .264-.367l1.692-.214a7.855 7.855 0 0 1 .018-1.942l-1.915-2.455a.309.309 0 0 1-.055-.268c.208-.794.529-1.494.952-2.08a.31.31 0 0 1 .451-.054l2.067 1.763a3.402 3.402 0 0 1 1.069-.61l-.495-2.654a.308.308 0 0 1 .275-.364 6.458 6.458 0 0 1 2.289.23.31.31 0 0 1 .204.18l1.175 2.877c.333.14.634.287.918.451.249.144.504.31.787.514l1.04-1.345a.31.31 0 0 1 .448-.043 18.677 18.677 0 0 1 2.215 2.335.31.31 0 0 1 .059.264l-.513 2.16c.493.712.93 1.467 1.304 2.25l2.143.648a.306.306 0 0 1 .198.182 18.28 18.28 0 0 1 .92 3.075.309.309 0 0 1-.264.367l-1.693.214a7.804 7.804 0 0 1-.017 1.942l1.916 2.454a.31.31 0 0 1 .054.268c-.209.794-.53 1.493-.953 2.08a.307.307 0 0 1-.45.054l-2.067-1.762a3.402 3.402 0 0 1-1.069.61l.494 2.654a.31.31 0 0 1-.275.364 5.552 5.552 0 0 1-.514.023Zm-1.464-.81c.546.139 1.084.2 1.583.191l-.481-2.58a.308.308 0 0 1 .224-.356 2.82 2.82 0 0 0 1.278-.727.31.31 0 0 1 .417-.016l2.011 1.713c.264-.426.475-.912.629-1.45l-1.901-2.434a.309.309 0 0 1-.062-.235c.055-.373.082-.719.082-1.055 0-.339-.027-.718-.082-1.158a.308.308 0 0 1 .267-.345l1.663-.21a17.788 17.788 0 0 0-.766-2.507l-2.13-.644a.311.311 0 0 1-.191-.164 15.716 15.716 0 0 0-1.388-2.396.306.306 0 0 1-.048-.248l.51-2.148a18.015 18.015 0 0 0-1.802-1.92l-1.021 1.32a.31.31 0 0 1-.43.058 9.693 9.693 0 0 0-.969-.654 7.455 7.455 0 0 0-.961-.461.31.31 0 0 1-.172-.17l-1.165-2.855a5.946 5.946 0 0 0-1.583-.191l.48 2.58a.309.309 0 0 1-.224.355c-.49.13-.92.375-1.278.728a.31.31 0 0 1-.418.016l-2.01-1.714a5.773 5.773 0 0 0-.63 1.45l1.901 2.435c.051.067.075.151.063.234a7.15 7.15 0 0 0-.082 1.056c0 .338.026.706.082 1.159a.309.309 0 0 1-.268.344l-1.662.21c.184.823.441 1.664.766 2.506l2.13.644a.309.309 0 0 1 .19.165c.39.836.857 1.642 1.388 2.395a.302.302 0 0 1 .048.249l-.509 2.148a18.067 18.067 0 0 0 1.802 1.92l1.021-1.32a.309.309 0 0 1 .43-.058c.358.27.676.484.969.654.295.17.599.316.962.461.077.031.139.093.17.17l1.167 2.854Z" fill="#FDB913"></path><path d="M157.637 39.498c-.423 0-.872-.135-1.333-.402-1.535-.885-2.783-3.038-2.783-4.799 0-1.317.69-2.167 1.757-2.167.423 0 .872.135 1.334.402 1.533.886 2.781 3.038 2.781 4.799 0 1.316-.689 2.167-1.756 2.167Zm-2.359-6.751c-.713 0-1.139.579-1.139 1.55 0 1.564 1.11 3.477 2.473 4.265.361.208.716.32 1.025.32.713 0 1.139-.58 1.139-1.551 0-1.564-1.109-3.477-2.472-4.265-.363-.209-.717-.319-1.026-.319ZM132.117 22.313c-.205 0-.418-.063-.634-.188l-2.593-1.498c-.687-.396-1.224-1.323-1.224-2.112V17.18c0-.988-.391-2.173-1.074-3.25-1.381-2.184-2.057-4.666-1.806-6.64.25-1.971 1.475-3.195 3.196-3.195.591 0 1.216.144 1.856.43 3.254 1.45 6.109 6.002 6.109 9.741 0 1.86-.716 3.241-1.963 3.792-.625.277-.969.936-.969 1.858v1.332c0 .302-.08.563-.232.751a.836.836 0 0 1-.666.314Zm-4.135-17.601c-1.407 0-2.373.992-2.583 2.654-.234 1.838.408 4.168 1.715 6.234.742 1.173 1.169 2.478 1.169 3.58v1.335c0 .57.419 1.292.915 1.578l2.593 1.498c.12.068.232.105.326.105.081 0 .14-.026.185-.083.062-.077.096-.207.096-.365v-1.332c0-1.163.487-2.046 1.337-2.422 1.013-.448 1.595-1.624 1.595-3.228 0-3.526-2.683-7.814-5.743-9.178-.56-.25-1.1-.376-1.605-.376Z" fill="#FDB913"></path><path d="M131.236 24.496a.962.962 0 0 1-.479-.139l-1.144-.662c-.545-.314-.972-1.118-.972-1.83v-1.484l3.397 1.96v1.13c0 .708-.402 1.025-.802 1.025Zm-1.979-3.046v.416c0 .486.311 1.091.664 1.296l1.145.66a.354.354 0 0 0 .17.057c.127 0 .185-.212.185-.409V22.7l-2.164-1.25ZM130.719 19.852h-.617V14.69l-.029.018-2.326-4.012 4.958 2.863-1.986 1.132v5.162Zm-1.279-7.467 1.013 1.747 1.012-.578-2.025-1.169ZM102.108 32.913c-.918 0-1.901-.298-2.921-.887-3.483-2.011-6.318-6.9-6.318-10.898 0-2.836 1.454-4.669 3.706-4.669.917 0 1.9.298 2.92.888 3.484 2.01 6.317 6.9 6.317 10.898 0 2.836-1.453 4.668-3.704 4.668Zm-5.533-15.837c-1.905 0-3.09 1.552-3.09 4.052 0 3.801 2.697 8.45 6.01 10.364.913.527 1.816.805 2.613.805 1.904 0 3.088-1.553 3.088-4.052 0-3.802-2.696-8.451-6.01-10.364-.912-.527-1.815-.805-2.611-.805Z" fill="#FDB913"></path><path d="m103.341 26.821-4.122-1.763a.31.31 0 0 1-.188-.284v-5.128h.617v4.925l3.935 1.682-.242.568ZM183.051 71.783c-1.025 0-2.219-.61-3.274-1.676a.263.263 0 0 1 .056-.41l1.982-1.13-1.978-3.412-1.985 1.131a.26.26 0 0 1-.381-.158c-.565-2.046-.173-3.8.999-4.469 1.125-.64 2.804-.137 4.249 1.25l3.852-2.195c-.488-1.962-.084-3.626 1.05-4.273 1.158-.66 2.914-.1 4.394 1.392a.26.26 0 0 1 .072.219.26.26 0 0 1-.128.192l-1.983 1.13 1.978 3.411 1.985-1.131a.263.263 0 0 1 .382.158c.564 2.046.172 3.8-1 4.468-1.12.64-2.802.139-4.249-1.25l-3.851 2.197c.486 1.961.082 3.625-1.051 4.271a2.232 2.232 0 0 1-1.119.285Zm-2.656-1.806c.89.82 1.845 1.283 2.656 1.283.319 0 .608-.073.86-.216.957-.546 1.253-2.067.754-3.876a.263.263 0 0 1 .122-.296l4.198-2.393a.26.26 0 0 1 .315.043c1.302 1.313 2.812 1.846 3.763 1.304.899-.512 1.215-1.884.836-3.548l-1.911 1.09a.263.263 0 0 1-.356-.096l-2.24-3.864a.257.257 0 0 1-.026-.2.258.258 0 0 1 .122-.158l1.907-1.088c-1.239-1.14-2.624-1.574-3.514-1.066-.958.545-1.254 2.067-.755 3.876a.261.261 0 0 1-.123.297l-4.196 2.392a.264.264 0 0 1-.316-.043c-1.3-1.314-2.811-1.849-3.762-1.305-.899.513-1.215 1.885-.837 3.548l1.911-1.09a.263.263 0 0 1 .356.097l2.24 3.864a.261.261 0 0 1-.096.358l-1.908 1.087Z" fill="#FDB913"></path><path d="M127.877 112.668a.308.308 0 0 1-.309-.308v-1.234a.31.31 0 0 1 .617 0v1.234a.307.307 0 0 1-.308.308Zm0-2.468a.308.308 0 0 1-.309-.308v-1.235a.308.308 0 0 1 .617 0v1.235c0 .17-.137.308-.308.308Zm0-2.468a.308.308 0 0 1-.309-.308v-1.235a.31.31 0 0 1 .617 0v1.235c0 .17-.137.308-.308.308Zm0-2.468a.31.31 0 0 1-.309-.309v-1.235a.308.308 0 0 1 .617 0v1.235c0 .17-.137.309-.308.309Zm0-2.469a.308.308 0 0 1-.309-.308v-1.235a.308.308 0 0 1 .617 0v1.235c0 .17-.137.308-.308.308Zm0-2.468a.31.31 0 0 1-.309-.309v-1.234a.308.308 0 0 1 .617 0v1.234c0 .17-.137.309-.308.309Zm0-2.47a.308.308 0 0 1-.309-.308v-1.234a.308.308 0 1 1 .617 0v1.234a.307.307 0 0 1-.308.309Zm0-2.467a.309.309 0 0 1-.309-.309v-1.234a.309.309 0 1 1 .617 0v1.234c0 .17-.137.309-.308.309Zm0-2.469a.308.308 0 0 1-.309-.309V91.38a.308.308 0 1 1 .617 0v1.233a.307.307 0 0 1-.308.31Zm0-2.468a.309.309 0 0 1-.309-.309V88.91a.309.309 0 1 1 .617 0v1.234c0 .17-.137.31-.308.31Zm0-2.469a.308.308 0 0 1-.309-.308v-1.234a.308.308 0 1 1 .617 0v1.234a.307.307 0 0 1-.308.308Zm0-2.468a.308.308 0 0 1-.309-.309v-1.234a.309.309 0 1 1 .617 0v1.234c0 .17-.137.309-.308.309Zm0-2.469a.309.309 0 0 1-.309-.308v-1.235a.308.308 0 0 1 .617 0v1.235c0 .17-.137.308-.308.308Zm.747-2.047a.308.308 0 0 1-.16-.573l1.056-.639a.31.31 0 0 1 .32.528l-1.056.64a.306.306 0 0 1-.16.044Zm2.112-1.278a.308.308 0 0 1-.16-.572l1.056-.64a.31.31 0 0 1 .424.104.31.31 0 0 1-.104.424l-1.056.64a.311.311 0 0 1-.16.044Zm2.112-1.279a.308.308 0 0 1-.16-.573l1.056-.638a.309.309 0 1 1 .319.528l-1.055.639a.314.314 0 0 1-.16.044Zm2.111-1.278a.309.309 0 0 1-.159-.572l1.056-.64a.31.31 0 0 1 .319.529l-1.056.639a.309.309 0 0 1-.16.044Zm2.112-1.278a.309.309 0 0 1-.16-.573l1.056-.639a.309.309 0 1 1 .319.528l-1.055.64a.311.311 0 0 1-.16.044Zm2.112-1.278a.309.309 0 0 1-.16-.573l1.056-.64a.309.309 0 0 1 .319.529l-1.056.64a.308.308 0 0 1-.159.044Zm2.111-1.28a.309.309 0 0 1-.159-.572l1.055-.638a.308.308 0 1 1 .32.528l-1.056.638a.308.308 0 0 1-.16.045Zm2.112-1.277a.309.309 0 0 1-.16-.572l1.056-.64a.308.308 0 0 1 .319.528l-1.056.64a.305.305 0 0 1-.159.044Zm2.111-1.279a.309.309 0 0 1-.159-.573l1.056-.639a.309.309 0 0 1 .319.528l-1.056.64a.309.309 0 0 1-.16.044Zm2.112-1.278a.308.308 0 0 1-.16-.572l1.056-.64a.31.31 0 0 1 .319.528l-1.055.64a.31.31 0 0 1-.16.044Zm2.111-1.279a.308.308 0 0 1-.16-.572l1.056-.639a.309.309 0 0 1 .32.528l-1.056.639a.31.31 0 0 1-.16.044Zm2.112-1.278a.309.309 0 0 1-.16-.572l1.056-.64a.31.31 0 0 1 .424.105.31.31 0 0 1-.104.423l-1.056.64a.31.31 0 0 1-.16.044Zm2.112-1.278a.309.309 0 0 1-.16-.572l1.056-.64a.309.309 0 1 1 .319.528l-1.056.64a.307.307 0 0 1-.159.044Zm2.111-1.279a.308.308 0 0 1-.159-.573l.193-.117v-.66a.309.309 0 0 1 .618 0v.834a.31.31 0 0 1-.149.264l-.343.208a.31.31 0 0 1-.16.044Zm.343-2.275a.31.31 0 0 1-.309-.308v-1.235a.31.31 0 0 1 .618 0v1.235a.31.31 0 0 1-.309.308Zm0-2.468a.31.31 0 0 1-.309-.309v-1.234a.31.31 0 0 1 .618 0v1.234a.31.31 0 0 1-.309.309Zm0-2.469a.31.31 0 0 1-.309-.308v-1.234a.309.309 0 0 1 .618 0v1.234a.31.31 0 0 1-.309.308Zm0-2.468a.31.31 0 0 1-.309-.309v-1.234a.31.31 0 0 1 .618 0v1.234a.31.31 0 0 1-.309.309Zm0-2.468a.309.309 0 0 1-.309-.309V50.69a.31.31 0 0 1 .618 0v1.234c0 .17-.139.309-.309.309Zm0-2.469a.31.31 0 0 1-.309-.309v-1.234a.31.31 0 0 1 .618 0v1.235a.31.31 0 0 1-.309.308Zm0-2.468a.31.31 0 0 1-.309-.309v-1.234a.31.31 0 0 1 .618 0v1.234a.31.31 0 0 1-.309.309ZM129.778 71.169a.308.308 0 0 1-.309-.309v-.308a.308.308 0 1 1 .617 0v.308c0 .17-.138.309-.308.309Zm0-1.543a.308.308 0 0 1-.309-.309v-1.234a.308.308 0 1 1 .617 0v1.234c0 .171-.138.31-.308.31Zm0-2.468a.308.308 0 0 1-.309-.309v-1.234a.308.308 0 1 1 .617 0v1.234c0 .17-.138.309-.308.309Zm0-2.469a.308.308 0 0 1-.309-.308v-1.234a.308.308 0 1 1 .617 0v1.234c0 .17-.138.308-.308.308Zm0-2.468a.308.308 0 0 1-.309-.309v-1.234a.308.308 0 1 1 .617 0v1.234c0 .17-.138.309-.308.309Zm0-2.469a.308.308 0 0 1-.309-.308V58.21a.308.308 0 1 1 .617 0v1.234c0 .17-.138.308-.308.308Zm0-2.468a.308.308 0 0 1-.309-.309v-1.234a.308.308 0 1 1 .617 0v1.234c0 .171-.138.309-.308.309Zm0-2.468a.308.308 0 0 1-.309-.309v-1.234a.308.308 0 1 1 .617 0v1.234c0 .17-.138.309-.308.309Zm0-2.469a.308.308 0 0 1-.309-.308v-1.235a.308.308 0 1 1 .617 0v1.235c0 .17-.138.308-.308.308Zm0-2.468a.308.308 0 0 1-.309-.309v-1.234a.308.308 0 1 1 .617 0v1.234c0 .17-.138.309-.308.309Zm0-2.469a.308.308 0 0 1-.309-.308v-1.234a.308.308 0 1 1 .617 0v1.234c0 .17-.138.308-.308.308Zm0-2.468a.308.308 0 0 1-.309-.309V43.4a.308.308 0 1 1 .617 0v1.234c0 .17-.138.309-.308.309Zm0-2.469a.308.308 0 0 1-.309-.308V40.93a.308.308 0 1 1 .617 0v1.234c0 .17-.138.308-.308.308Zm0-2.468a.308.308 0 0 1-.309-.309v-1.234a.308.308 0 1 1 .617 0v1.234c0 .171-.138.309-.308.309Zm0-2.468a.308.308 0 0 1-.309-.309v-1.234a.308.308 0 1 1 .617 0v1.234c0 .17-.138.309-.308.309Zm0-2.469a.308.308 0 0 1-.309-.308v-1.235a.308.308 0 1 1 .617 0v1.235c0 .17-.138.308-.308.308Zm0-2.468a.308.308 0 0 1-.309-.309v-1.234a.308.308 0 1 1 .617 0v1.234c0 .17-.138.309-.308.309Zm0-2.469a.308.308 0 0 1-.309-.308v-1.235a.308.308 0 1 1 .617 0v1.235c0 .17-.138.308-.308.308Zm0-2.468a.308.308 0 0 1-.309-.309V26.12a.308.308 0 1 1 .617 0v1.234c0 .17-.138.309-.308.309ZM72.183 78.368a.308.308 0 0 1-.308-.309v-1.234a.308.308 0 1 1 .617 0v1.234c0 .17-.138.309-.309.309Zm0-2.468a.308.308 0 0 1-.308-.309v-1.234a.308.308 0 1 1 .617 0v1.234c0 .17-.138.309-.309.309Zm0-2.469a.308.308 0 0 1-.308-.308v-1.235a.308.308 0 1 1 .617 0v1.234c0 .171-.138.309-.309.309Zm0-2.468a.308.308 0 0 1-.308-.309V69.42a.308.308 0 1 1 .617 0v1.234c0 .17-.138.309-.309.309Zm0-2.469a.308.308 0 0 1-.308-.308V66.95a.308.308 0 1 1 .617 0v1.235c0 .17-.138.308-.309.308Zm0-2.468a.308.308 0 0 1-.308-.309v-1.234a.308.308 0 1 1 .617 0v1.234c0 .17-.138.309-.309.309Zm0-2.469a.308.308 0 0 1-.308-.308v-1.234a.308.308 0 1 1 .617 0v1.234c0 .17-.138.308-.309.308Zm0-2.468a.308.308 0 0 1-.308-.309v-1.234a.308.308 0 1 1 .617 0v1.234c0 .171-.138.309-.309.309Zm0-2.468a.308.308 0 0 1-.308-.31v-1.233a.308.308 0 1 1 .617 0v1.234c0 .17-.138.309-.309.309Zm0-2.469a.308.308 0 0 1-.308-.309V54.61a.308.308 0 1 1 .617 0v1.234c0 .171-.138.31-.309.31Zm0-2.468a.308.308 0 0 1-.308-.309v-1.234a.308.308 0 1 1 .617 0v1.234c0 .17-.138.309-.309.309Zm0-2.469a.308.308 0 0 1-.308-.308v-1.234a.308.308 0 1 1 .617 0v1.234c0 .17-.138.308-.309.308Zm0-2.468a.308.308 0 0 1-.308-.309v-1.234a.308.308 0 1 1 .617 0v1.234c0 .17-.138.309-.309.309Zm0-2.469a.308.308 0 0 1-.308-.308v-1.234a.308.308 0 1 1 .617 0v1.234c0 .17-.138.308-.309.308Zm0-2.468a.308.308 0 0 1-.308-.309v-1.234a.308.308 0 1 1 .617 0v1.234c0 .171-.138.309-.309.309Zm0-2.468a.308.308 0 0 1-.308-.309v-1.234a.308.308 0 1 1 .617 0v1.234c0 .17-.138.309-.309.309Zm0-2.469a.308.308 0 0 1-.308-.308V37.33a.308.308 0 1 1 .617 0v1.235c0 .17-.138.308-.309.308Zm0-2.468a.308.308 0 0 1-.308-.309v-1.234a.308.308 0 1 1 .617 0v1.234c0 .17-.138.309-.309.309Zm0-2.469a.308.308 0 0 1-.308-.308v-1.234a.308.308 0 1 1 .617 0v1.234c0 .17-.138.308-.309.308Zm0-2.468a.308.308 0 0 1-.308-.309v-1.234a.308.308 0 1 1 .617 0v1.234c0 .17-.138.309-.309.309Zm0-2.469a.308.308 0 0 1-.308-.308v-1.234a.308.308 0 1 1 .617 0v1.234c0 .17-.138.308-.309.308Zm0-2.468a.308.308 0 0 1-.308-.309v-1.234a.308.308 0 1 1 .617 0v1.234c0 .171-.138.309-.309.309ZM68.48 117.657a.308.308 0 0 1-.309-.308v-1.235a.308.308 0 0 1 .617 0v1.235c0 .17-.138.308-.308.308Zm0-2.468a.31.31 0 0 1-.309-.309v-1.234c0-.171.138-.308.309-.308.17 0 .308.137.308.308v1.234a.31.31 0 0 1-.308.309Zm0-2.469a.308.308 0 0 1-.309-.308v-1.234a.308.308 0 1 1 .617 0v1.234c0 .17-.138.308-.308.308Zm0-2.468a.308.308 0 0 1-.309-.309v-1.234c0-.171.138-.308.309-.308.17 0 .308.137.308.308v1.234a.308.308 0 0 1-.308.309Zm0-2.469a.308.308 0 0 1-.309-.308v-1.234a.308.308 0 1 1 .617 0v1.234a.308.308 0 0 1-.308.308Zm0-2.468a.308.308 0 0 1-.309-.309v-1.234a.308.308 0 0 1 .617 0v1.234a.308.308 0 0 1-.308.309Zm0-2.469a.308.308 0 0 1-.309-.308v-1.234a.31.31 0 0 1 .617 0v1.234a.308.308 0 0 1-.308.308Zm0-2.468a.308.308 0 0 1-.309-.308v-1.235a.308.308 0 0 1 .617 0v1.235c0 .17-.138.308-.308.308Zm0-2.469a.308.308 0 0 1-.309-.308v-1.234a.308.308 0 1 1 .617 0v1.234a.308.308 0 0 1-.308.308Zm0-2.468a.309.309 0 0 1-.309-.308v-1.235a.309.309 0 1 1 .617 0v1.235c0 .17-.138.309-.308.309Zm0-2.468a.308.308 0 0 1-.309-.31V91.43a.308.308 0 1 1 .617 0v1.234a.308.308 0 0 1-.308.309Zm0-2.468a.309.309 0 0 1-.309-.31v-1.233a.309.309 0 1 1 .617 0v1.234c0 .17-.138.309-.308.309Zm-.851-1.971a.303.303 0 0 1-.151-.04l-1.076-.607a.308.308 0 1 1 .303-.537l1.075.606a.308.308 0 0 1-.151.578Zm-2.15-1.213a.302.302 0 0 1-.152-.04l-1.075-.606a.308.308 0 1 1 .303-.537l1.075.605a.308.308 0 0 1-.151.578Zm-2.15-1.212a.304.304 0 0 1-.152-.04l-1.075-.607a.308.308 0 0 1-.118-.42.308.308 0 0 1 .42-.117l1.075.606a.308.308 0 0 1-.15.578Zm-2.15-1.213a.311.311 0 0 1-.152-.04l-1.075-.605a.309.309 0 0 1 .302-.538l1.075.606a.308.308 0 0 1-.15.577Zm-2.151-1.212a.302.302 0 0 1-.151-.04l-1.076-.606a.308.308 0 1 1 .303-.537l1.075.606a.307.307 0 0 1-.151.577Zm-2.15-1.212a.303.303 0 0 1-.152-.04l-1.075-.606a.308.308 0 1 1 .303-.537l1.075.605a.308.308 0 0 1-.151.578Zm-2.15-1.212a.303.303 0 0 1-.152-.04l-1.075-.606a.308.308 0 1 1 .303-.538l1.075.606a.308.308 0 0 1-.152.578Zm-2.15-1.213a.303.303 0 0 1-.152-.04l-1.075-.605a.308.308 0 1 1 .302-.538l1.075.606a.308.308 0 0 1-.15.577Zm-2.152-1.212a.304.304 0 0 1-.151-.04L49.2 78.19a.308.308 0 1 1 .302-.537l1.075.606a.308.308 0 0 1-.15.577Zm-2.15-1.212a.304.304 0 0 1-.151-.04l-1.075-.606a.308.308 0 1 1 .302-.537l1.075.606a.308.308 0 0 1-.151.577Zm-2.15-1.212a.303.303 0 0 1-.151-.04l-1.075-.606a.308.308 0 0 1-.118-.42.307.307 0 0 1 .42-.118l1.075.607a.308.308 0 0 1-.151.577Zm-2.15-1.213a.303.303 0 0 1-.152-.04l-1.075-.605a.308.308 0 1 1 .303-.538l1.075.606a.308.308 0 0 1-.151.578Zm-2.15-1.211a.304.304 0 0 1-.152-.04L40.6 73.34a.308.308 0 1 1 .303-.538l1.075.606a.308.308 0 0 1-.152.578Zm-2.15-1.213a.303.303 0 0 1-.152-.04l-1.075-.606a.308.308 0 1 1 .302-.538l1.075.607a.308.308 0 0 1-.15.577Zm-2.151-1.212a.304.304 0 0 1-.151-.04l-1.076-.606a.308.308 0 1 1 .303-.537l1.075.606a.308.308 0 0 1-.151.577Zm-2.15-1.212a.304.304 0 0 1-.152-.04l-1.075-.606a.308.308 0 1 1 .303-.538l1.075.606a.308.308 0 0 1-.151.578Zm-2.15-1.212a.307.307 0 0 1-.153-.04l-.228-.13a.308.308 0 0 1-.157-.268v-.972a.308.308 0 1 1 .618 0v.792l.071.04a.31.31 0 0 1-.151.578Zm-.229-2.336a.308.308 0 0 1-.309-.308V65.26a.308.308 0 1 1 .618 0v1.234c0 .17-.138.308-.309.308Zm0-2.468a.308.308 0 0 1-.309-.309v-1.234a.308.308 0 1 1 .618 0v1.234c0 .171-.138.309-.309.309Zm0-2.468a.308.308 0 0 1-.309-.309v-1.234a.308.308 0 1 1 .618 0v1.234c0 .17-.138.309-.309.309Zm0-2.469a.308.308 0 0 1-.309-.308v-1.235a.308.308 0 1 1 .618 0v1.235c0 .17-.138.308-.309.308Zm0-2.468a.308.308 0 0 1-.309-.309v-1.234a.308.308 0 1 1 .618 0v1.234c0 .17-.138.309-.309.309Zm0-2.469a.308.308 0 0 1-.309-.308v-.777a.308.308 0 1 1 .618 0v.777c0 .17-.138.308-.309.308Z" fill="#A8A9A8"></path><path d="M183.031 79.787a.31.31 0 0 1-.156-.042l-1.064-.624a.308.308 0 1 1 .312-.533l1.064.625a.308.308 0 0 1-.156.574Zm.386-.561a.308.308 0 0 1-.309-.309v-1.234a.308.308 0 1 1 .617 0v1.234c0 .17-.138.309-.308.309Zm-2.515-.687a.312.312 0 0 1-.156-.042l-1.065-.625a.309.309 0 0 1 .313-.533l1.064.625a.31.31 0 0 1-.156.575Zm-2.129-1.25a.307.307 0 0 1-.156-.042l-1.064-.624a.308.308 0 1 1 .312-.533l1.064.625a.309.309 0 0 1-.156.574Zm4.644-.532a.308.308 0 0 1-.309-.308v-1.234a.308.308 0 1 1 .617 0v1.234c0 .17-.138.308-.308.308Zm-6.773-.717a.31.31 0 0 1-.156-.042l-1.064-.624a.31.31 0 0 1-.111-.423.312.312 0 0 1 .423-.11l1.064.624a.308.308 0 0 1-.156.575Zm-2.129-1.249a.31.31 0 0 1-.156-.042l-1.065-.625a.309.309 0 0 1 .312-.532l1.066.625a.309.309 0 0 1-.157.575Zm8.902-.502a.308.308 0 0 1-.309-.309v-.755a.308.308 0 1 1 .617 0v.755c0 .17-.138.309-.308.309Zm-11.031-.747a.312.312 0 0 1-.156-.042l-1.065-.624a.309.309 0 0 1 .312-.533l1.065.624a.31.31 0 0 1-.156.575Zm-2.129-1.25a.31.31 0 0 1-.156-.041l-1.065-.625a.31.31 0 0 1-.111-.422.31.31 0 0 1 .424-.11l1.064.624a.309.309 0 0 1-.156.575Zm-2.129-1.248a.31.31 0 0 1-.156-.042l-1.065-.625a.308.308 0 1 1 .312-.533l1.065.625a.308.308 0 0 1-.156.575Zm-2.129-1.249a.31.31 0 0 1-.156-.042l-1.065-.624a.309.309 0 0 1 .312-.533l1.065.624a.309.309 0 0 1-.156.575Zm-2.13-1.25a.312.312 0 0 1-.156-.041l-1.064-.625a.309.309 0 0 1 .312-.533l1.064.625a.308.308 0 0 1-.156.575Zm-2.128-1.248a.307.307 0 0 1-.156-.042l-1.065-.625a.31.31 0 0 1 .313-.533l1.064.625a.31.31 0 0 1-.156.575Zm-2.13-1.25a.31.31 0 0 1-.156-.041l-1.064-.625a.308.308 0 1 1 .312-.532l1.065.624a.309.309 0 0 1-.157.575Zm-2.129-1.248a.312.312 0 0 1-.156-.043l-1.064-.624a.308.308 0 1 1 .312-.533l1.064.625a.31.31 0 0 1-.156.575ZM128.493 35.119a.308.308 0 0 1-.098-.016l-.399-.135a.309.309 0 0 1-.194-.391.311.311 0 0 1 .391-.194l.4.135a.308.308 0 0 1-.1.601Zm-1.568-.53a.308.308 0 0 1-.098-.017l-1.17-.395a.308.308 0 1 1 .198-.584l1.17.395c.161.054.248.23.192.391a.308.308 0 0 1-.292.21Zm-2.338-.791a.314.314 0 0 1-.099-.016l-1.169-.396a.308.308 0 1 1 .198-.584l1.168.395a.309.309 0 0 1-.098.601Zm-2.338-.79a.323.323 0 0 1-.1-.017l-1.168-.395a.308.308 0 1 1 .197-.585l1.169.395a.308.308 0 0 1-.098.601Zm-2.339-.791a.314.314 0 0 1-.099-.017l-1.169-.395a.308.308 0 0 1 .198-.584l1.169.395a.308.308 0 0 1-.099.6Zm-2.338-.791a.31.31 0 0 1-.099-.016l-1.169-.396a.309.309 0 0 1-.194-.39.312.312 0 0 1 .391-.194l1.17.395a.308.308 0 0 1-.099.6Zm-2.339-.79a.308.308 0 0 1-.098-.017l-1.17-.395a.307.307 0 0 1-.192-.391.311.311 0 0 1 .39-.194l1.17.395a.308.308 0 0 1-.1.601Zm-2.338-.791a.314.314 0 0 1-.099-.017l-1.169-.395a.308.308 0 1 1 .198-.584l1.168.395a.308.308 0 0 1-.098.6Zm-2.338-.791a.32.32 0 0 1-.1-.016l-1.168-.396a.309.309 0 0 1-.194-.39.311.311 0 0 1 .391-.194l1.169.395a.308.308 0 0 1-.098.601Zm-2.339-.79a.306.306 0 0 1-.098-.017l-1.17-.395a.308.308 0 0 1 .198-.585l1.169.396a.308.308 0 0 1-.099.6Z" fill="#A8A9A8"></path><path d="M71.785 23.487a.316.316 0 0 1-.112-.021c-4.556-1.789-7.71-4.446-8.298-11.602l-.158-1.926a.308.308 0 0 1 .156-.294l.111-.063c2.906-1.648 5.704-4.26 8.092-7.555a.31.31 0 0 1 .096-.086.426.426 0 0 1 .254-.053c2.304.518 5.132-.114 7.965-1.778l.112-.067a.307.307 0 0 1 .32.005c.097.06.153.17.144.285L80.31 2.44c-.58 7.724-3.678 13.918-8.152 20.84a.31.31 0 0 1-.106.101l-.113.065a.31.31 0 0 1-.154.041Zm-7.937-13.403.142 1.73c.553 6.743 3.485 9.303 7.73 11.006 4.38-6.793 7.408-12.879 7.974-20.426l.114-1.528c-2.764 1.536-5.519 2.123-7.835 1.662-2.4 3.277-5.206 5.887-8.125 7.556Z" fill="#FDB913"></path><path d="M71.811 18.182a.316.316 0 0 1-.113-.02c-2.823-1.11-4.082-2.869-4.345-6.071l-.08-.987a.307.307 0 0 1 .155-.293l.057-.033c1.47-.833 2.886-2.157 4.097-3.826a.319.319 0 0 1 .097-.088.364.364 0 0 1 .237-.043c1.142.26 2.553-.06 3.97-.893l.058-.034a.31.31 0 0 1 .465.289l-.082 1.08c-.299 3.986-1.894 7.179-4.199 10.745a.311.311 0 0 1-.104.098l-.057.034a.304.304 0 0 1-.156.042Zm-3.907-6.933.064.791c.272 3.315 1.69 4.611 3.75 5.464 2.195-3.419 3.71-6.493 3.993-10.287l.039-.51c-1.33.688-2.648.953-3.777.755-1.207 1.629-2.61 2.934-4.07 3.787ZM25.983 54.815a.308.308 0 0 1-.308-.308v-7.36c0-.11.059-.212.154-.267l3.207-1.851a.308.308 0 0 1 .463.267v7.36c0 .11-.06.211-.155.266l-3.206 1.852a.308.308 0 0 1-.155.041Zm.309-7.49v6.647l2.59-1.495V45.83l-2.59 1.496ZM31.061 51.884a.308.308 0 0 1-.308-.308V38.084c0-.11.059-.212.154-.267l3.207-1.852a.308.308 0 0 1 .463.267v13.492c0 .11-.06.213-.154.267l-3.207 1.852a.308.308 0 0 1-.155.041Zm.31-13.622v12.78l2.589-1.496V36.767l-2.59 1.495ZM36.14 48.953a.308.308 0 0 1-.309-.309V29.02c0-.11.06-.212.154-.267l3.207-1.851a.307.307 0 0 1 .463.267v19.624c0 .11-.06.212-.154.267l-3.207 1.852a.307.307 0 0 1-.154.041Zm.308-19.754V48.11l2.59-1.495V27.703l-2.59 1.496Z" fill="#FDB913"></path></g><defs><clipPath id="partners_svg__a"><path fill="#fff" d="M0 0h200v170.4H0z"></path></clipPath></defs></svg>