<svg width="32" height="32" viewBox="0 0 32 32" fill="none" xmlns="http://www.w3.org/2000/svg"><circle cx="16" cy="16" r="16" fill="#000"></circle><g clip-path="url(#infra_svg__a)"><path d="m25.598 12.315.001-.001-9.572-8.23a.349.349 0 0 0-.455 0L6 12.314v7.373h.001l9.571 8.229c.131.112.324.112.455 0l9.57-8.229h.003v-7.372h-.002ZM16.88 6.082l6.939 5.966a.35.35 0 0 1 0 .532l-3.016 2.593a.349.349 0 0 1-.454 0l-4.046-3.478V6.348c0-.299.35-.46.577-.266Zm-1.081-.93.001.002h-.003l.002-.001Zm-.476 1.171v5.346l-4.074 3.504a.349.349 0 0 1-.455 0L7.779 12.58a.351.351 0 0 1 0-.532l6.969-5.991a.35.35 0 0 1 .576.266Zm-7.767 7.33 2.42 2.081a.351.351 0 0 1 0 .532l-2.42 2.081a.35.35 0 0 1-.576-.266v-4.162c0-.3.35-.46.576-.266Zm7.19 12.29L7.78 19.952a.351.351 0 0 1 0-.532l3.016-2.593a.349.349 0 0 1 .455 0l4.074 3.503v5.347c0 .3-.35.46-.576.266Zm-2.68-9.677a.351.351 0 0 1 0-.532l3.731-3.208.002-.001.001.001 3.732 3.208a.351.351 0 0 1 0 .532l-3.733 3.21-3.733-3.21Zm4.237 9.386v-5.347l4.046-3.478a.349.349 0 0 1 .454 0l3.016 2.593a.35.35 0 0 1 0 .532l-6.939 5.966a.35.35 0 0 1-.577-.266Zm7.74-7.304-2.423-2.082a.35.35 0 0 1 0-.532l2.422-2.082a.35.35 0 0 1 .577.266v4.164c0 .3-.35.461-.577.266Z" fill="#FDB913"></path></g><defs><clipPath id="infra_svg__a"><path fill="#fff" transform="translate(6 4)" d="M0 0h19.6v24H0z"></path></clipPath></defs></svg>